<?xml version="1.0" encoding="UTF-8"?>
<svg width="855px" height="1122px" viewBox="0 0 855 1122" version="1.1" xmlns="http://www.w3.org/2000/svg" xmlns:xlink="http://www.w3.org/1999/xlink">
    <!-- Generator: Sketch 52.6 (67491) - http://www.bohemiancoding.com/sketch -->
    <title>tv</title>
    <desc>Created with Sketch.</desc>
    <defs>
        <filter x="-1.4%" y="-1.1%" width="102.8%" height="102.1%" filterUnits="objectBoundingBox" id="filter-1">
            <feOffset dx="0" dy="2" in="SourceAlpha" result="shadowOffsetOuter1"></feOffset>
            <feGaussianBlur stdDeviation="2" in="shadowOffsetOuter1" result="shadowBlurOuter1"></feGaussianBlur>
            <feColorMatrix values="0 0 0 0 0   0 0 0 0 0   0 0 0 0 0  0 0 0 0.5 0" type="matrix" in="shadowBlurOuter1" result="shadowMatrixOuter1"></feColorMatrix>
            <feMerge>
                <feMergeNode in="shadowMatrixOuter1"></feMergeNode>
                <feMergeNode in="SourceGraphic"></feMergeNode>
            </feMerge>
        </filter>
    </defs>
    <g id="Page-1" stroke="none" stroke-width="1" fill="none" fill-rule="evenodd">
        <g id="tv" filter="url(#filter-1)" transform="translate(4.000000, -3.000000)">
            <path d="M0.846153846,600 C0.846153846,400 0.846153846,200 0.846153846,0 C282.896154,0 564.95,0 847,0 C847,194.873077 847,389.742308 847,584.615385 C844.980769,580.184615 842.380769,575.915385 841.019231,571.288462 C815.119231,483.146154 745,430.534615 652.942308,430.403846 C611.919231,430.346154 570.896154,430.119231 529.880769,430.557692 C518.423077,430.680769 511.646154,429 508.026923,415.661538 C505.257692,405.465385 496.819231,395.796154 488.646154,388.365385 C481.073077,381.476923 479.469231,376.580769 483.857692,367.257692 C517.326923,296.130769 549.876923,224.565385 583.553846,153.546154 C605.630769,106.992308 629.207692,61.1461538 651.730769,14.8 C652.853846,12.4884615 650.323077,8.40384615 649.488462,5.14615385 C646.296154,7.08461538 641.446154,8.28461538 640.196154,11.0923077 C635.057692,22.6346154 632.165385,35.2615385 626.373077,46.4192308 C596.373077,104.184615 565.265385,161.373077 535.492308,219.246154 C515.569231,257.965385 495.853846,296.911538 478.680769,336.884615 C468.157692,361.365385 456.903846,379.292308 426.488462,370.969231 C424.119231,370.323077 421.246154,370.473077 418.85,371.134615 C408.261538,374.065385 402.826923,369.646154 398.046154,360.073077 C360.946154,285.753846 322.961538,211.884615 285.992308,137.511538 C265.053846,95.3923077 245.596154,52.5384615 225.123077,10.1846154 C223.869231,7.59615385 219.561538,6.48461538 216.676923,4.68461538 C215.992308,8.46538462 213.580769,13.1076923 214.95,15.8730769 C218.853846,23.7461538 225.342308,30.3769231 228.969231,38.3384615 C261.780769,110.353846 293.826923,182.715385 326.873077,254.619231 C345.811538,295.819231 366.184615,336.361538 383.888462,373.011538 C369.584615,392.519231 357.5,409 345.411538,425.488462 C346.6,427.119231 347.788462,428.753846 348.980769,430.380769 C342.05,430.380769 335.123077,430.380769 328.192308,430.380769 C282.684615,430.384615 237.176923,430.276923 191.669231,430.415385 C103.426923,430.680769 29.8115385,488.576923 8.17692308,574.446154 C6.01538462,583.034615 3.30384615,591.488462 0.846153846,600 Z" id="Path"></path>
            <path d="M0.846153846,600 C3.30384615,591.488462 6.01538462,583.038462 8.17692308,574.45 C29.8115385,488.580769 103.426923,430.688462 191.669231,430.419231 C237.176923,430.280769 282.684615,430.388462 328.192308,430.384615 C335.123077,430.384615 342.05,430.384615 348.980769,430.384615 C347.788462,428.753846 346.6,427.119231 345.411538,425.492308 C357.5,409.007692 369.584615,392.526923 383.888462,373.015385 C366.180769,336.365385 345.811538,295.823077 326.873077,254.623077 C293.826923,182.719231 261.780769,110.353846 228.969231,38.3423077 C225.342308,30.3846154 218.853846,23.75 214.95,15.8769231 C213.580769,13.1115385 215.992308,8.46923077 216.676923,4.68846154 C219.561538,6.48846154 223.873077,7.6 225.123077,10.1884615 C245.596154,52.5423077 265.053846,95.3923077 285.992308,137.511538 C322.961538,211.884615 360.946154,285.753846 398.038462,360.065385 C402.819231,369.638462 408.253846,374.057692 418.842308,371.126923 C421.238462,370.465385 424.111538,370.315385 426.480769,370.961538 C456.896154,379.284615 468.15,361.357692 478.673077,336.876923 C495.85,296.903846 515.565385,257.957692 535.484615,219.238462 C565.257692,161.365385 596.365385,104.176923 626.365385,46.4115385 C632.157692,35.2576923 635.05,22.6269231 640.188462,11.0846154 C641.438462,8.28076923 646.288462,7.07692308 649.480769,5.13846154 C650.315385,8.39615385 652.846154,12.4807692 651.723077,14.7923077 C629.203846,61.1384615 605.626923,106.984615 583.546154,153.538462 C549.869231,224.561538 517.319231,296.123077 483.85,367.25 C479.461538,376.573077 481.065385,381.469231 488.638462,388.357692 C496.811538,395.788462 505.25,405.453846 508.019231,415.653846 C511.634615,428.992308 518.411538,430.673077 529.873077,430.55 C570.888462,430.111538 611.911538,430.338462 652.934615,430.396154 C744.996154,430.526923 815.111538,483.138462 841.011538,571.280769 C842.373077,575.907692 844.969231,580.173077 846.992308,584.607692 C846.992308,691.023077 846.992308,797.426923 846.992308,903.834615 C845.315385,907.05 843.065385,910.1 842.057692,913.511538 C819.880769,988.661538 771.811538,1036.73846 694.865385,1054.82692 C691.265385,1055.67692 687.826923,1057.17692 682.453846,1059.00385 C685.892308,1072.57692 690.115385,1085.25769 691.965385,1098.27692 C692.876923,1104.72308 689.403846,1111.78462 687.907692,1118.56538 C681.196154,1116.00385 671.980769,1115.34231 668.273077,1110.48077 C659.838462,1099.42308 653.196154,1086.69615 647.523077,1073.89615 C642.392308,1062.30385 635.330769,1058.24231 622.526923,1058.28462 C490.607692,1058.73462 358.684615,1058.75 226.769231,1058.26154 C213.761538,1058.20769 207.257692,1062.85 202.034615,1074.20769 C195.930769,1087.47308 188.492308,1100.40385 179.680769,1111.99231 C176.442308,1116.25769 167.630769,1116.28846 161.361538,1118.25 C159.876923,1112.08846 156.396154,1105.62308 157.307692,1099.85385 C159.457692,1086.21923 163.7,1072.91538 167.323077,1058.58462 C161.957692,1056.90769 158.488462,1055.56538 154.896154,1054.75385 C82.4807692,1038.36923 35.5653846,993.757692 10.7384615,924.669231 C7.33461538,915.196154 4.13461538,905.65 0.838461538,896.138462 C0.846153846,797.434615 0.846153846,698.719231 0.846153846,600 Z M356.915385,947.111538 C356.915385,947 356.915385,946.892308 356.915385,946.788462 C428.030769,946.788462 499.146154,946.811538 570.265385,946.773077 C611.542308,946.75 628.746154,929.826923 628.8,888.669231 C628.919231,791.930769 628.911538,695.192308 628.815385,598.453846 C628.773077,558.576923 611.223077,541.157692 571.35,541.146154 C429.130769,541.103846 286.915385,541.107692 144.7,541.142308 C104.415385,541.153846 85.5269231,559.392308 85.4423077,599.519231 C85.2423077,696.903846 85.3038462,794.288462 85.6192308,891.665385 C85.7384615,928.084615 105.419231,947.096154 141.653846,947.103846 C213.403846,947.123077 285.157692,947.111538 356.915385,947.111538 Z M681.476923,651.111538 C681.646154,673.453846 699.707692,691.488462 721.907692,691.480769 C743.480769,691.473077 762.373077,672.288462 762.15,650.615385 C761.915385,628.65 743.138462,610.019231 721.396154,610.192308 C699.430769,610.365385 681.311538,628.942308 681.476923,651.111538 Z M720.953846,877.661538 C743.203846,877.9 761.684615,860.15 762.153846,838.092308 C762.607692,816.607692 743.857692,797.030769 722.380769,796.55 C700.911538,796.069231 681.873077,814.738462 681.442308,836.680769 C681.011538,858.919231 698.85,877.419231 720.953846,877.661538 Z" id="Shape" fill="#000000" fill-rule="nonzero"></path>
            <path d="M0.846153846,896.15 C4.14230769,905.661538 7.34230769,915.207692 10.7461538,924.680769 C35.5730769,993.769231 82.4884615,1038.38077 154.903846,1054.76538 C158.496154,1055.57692 161.965385,1056.92308 167.330769,1058.59615 C163.707692,1072.93077 159.465385,1086.23462 157.315385,1099.86538 C156.403846,1105.63462 159.880769,1112.10385 161.369231,1118.26154 C167.638462,1116.3 176.446154,1116.26923 179.688462,1112.00385 C188.5,1100.41154 195.938462,1087.48462 202.042308,1074.21923 C207.265385,1062.86154 213.769231,1058.21923 226.776923,1058.27308 C358.696154,1058.76154 490.619231,1058.74615 622.534615,1058.29615 C635.338462,1058.25 642.4,1062.31538 647.530769,1073.90769 C653.203846,1086.70769 659.842308,1099.43462 668.280769,1110.49231 C671.992308,1115.35385 681.203846,1116.01538 687.915385,1118.57692 C689.411538,1111.79231 692.884615,1104.73077 691.973077,1098.28846 C690.126923,1085.26923 685.9,1072.58846 682.461538,1059.01538 C687.830769,1057.18846 691.273077,1055.68846 694.873077,1054.83846 C771.819231,1036.75 819.888462,988.673077 842.065385,913.523077 C843.073077,910.111538 845.326923,907.061538 847,903.846154 C847,976.819231 847,1049.78077 847,1122.91154 C564.95,1122.91154 282.9,1122.91154 0.846153846,1122.91154 C0.846153846,1047.20769 0.846153846,971.680769 0.846153846,896.15 Z" id="Path"></path>
            <path d="M356.915385,947.111538 C285.161538,947.111538 213.407692,947.126923 141.65,947.103846 C105.419231,947.096154 85.7346154,928.084615 85.6153846,891.665385 C85.2961538,794.288462 85.2346154,696.903846 85.4384615,599.519231 C85.5230769,559.392308 104.415385,541.153846 144.696154,541.142308 C286.911538,541.107692 429.126923,541.103846 571.346154,541.146154 C611.219231,541.157692 628.773077,558.576923 628.811538,598.453846 C628.907692,695.192308 628.915385,791.930769 628.796154,888.669231 C628.742308,929.826923 611.542308,946.753846 570.261538,946.773077 C499.146154,946.811538 428.030769,946.788462 356.911538,946.788462 C356.915385,946.892308 356.915385,946.996154 356.915385,947.111538 Z" id="Path" fill-opacity="0.384454257" fill="#FFFFFF"></path>
            <path d="M681.476923,651.111538 C681.311538,628.942308 699.430769,610.365385 721.396154,610.192308 C743.134615,610.019231 761.915385,628.65 762.15,650.615385 C762.376923,672.288462 743.480769,691.473077 721.907692,691.480769 C699.711538,691.488462 681.646154,673.45 681.476923,651.111538 Z" id="Path"></path>
            <path d="M720.953846,877.661538 C698.85,877.423077 681.011538,858.919231 681.446154,836.680769 C681.873077,814.738462 700.915385,796.069231 722.384615,796.55 C743.861538,797.030769 762.611538,816.607692 762.157692,838.092308 C761.684615,860.15 743.203846,877.9 720.953846,877.661538 Z" id="Path"></path>
        </g>
    </g>
</svg>