<?xml version="1.0" encoding="UTF-8"?>
<svg width="684px" height="1000px" viewBox="0 0 684 1000" version="1.1" xmlns="http://www.w3.org/2000/svg" xmlns:xlink="http://www.w3.org/1999/xlink">
    <!-- Generator: Sketch 52.6 (67491) - http://www.bohemiancoding.com/sketch -->
    <title>tv2</title>
    <desc>Created with Sketch.</desc>
    <g id="Page-1" stroke="none" stroke-width="1" fill="none" fill-rule="evenodd">
        <g id="tv" transform="translate(-9.000000, -8.000000)">
            <g id="tv2" transform="translate(0.000000, 8.000000)">
                <path d="M0,1000.00004 C0,666.778 0,333.557 0,0 C164,0 328,0 492,0 C491.18,0.393 490.394,0.89 489.535,1.161 C476.06,5.411 468.257,18.492 470.898,32.416 C472.026,38.36 475.218,43.146 479.588,47.616 C444.397,102.136 409.246,156.593 374.099,211.043 C357.603,206.32 341.746,207.038 325.82,212.702 C297.27,174.085 268.812,135.593 240.453,97.233 C248.802,85.703 248.709,74.731 240.516,66.494 C232.979,58.917 221.273,57.932 212.658,64.149 C204.25,70.218 201.38,81.521 205.864,90.903 C210.871,101.379 221.236,105.186 234.655,101.216 C260.582,140.319 286.576,179.523 312.718,218.95 C289.437,234.534 277.128,255.867 276.18,283.862 C327.211,283.862 377.756,283.862 428.672,283.862 C427.75,255.278 414.951,233.849 391.447,218.453 C423.484,162.773 455.319,107.444 487.08,52.245 C489.058,52.739 490.487,53.136 491.934,53.452 C506.142,56.564 520.347,47.328 523.649,32.846 C526.902,18.576 517.764,4.192 503.434,0.966 C502.911,0.849 502.477,0.331 502,0 C567.973,0 633.945,0 700,0 C700,333.333 700,666.667 700,1000.00004 C613.172,1000 526.343,1000.001 439.515,999.993 C434.017,999.993 428.52,999.917 423.023,999.876 C423.3,997.171 425.418,998.086 426.875,998.055 C432.372,997.938 437.89,998.236 443.367,997.881 C455.732,997.08 468.075,995.941 480.433,995.027 C486.541,994.575 492.673,994.432 498.778,993.936 C503.372,993.562 507.935,992.819 512.518,992.294 C519.403,991.507 526.29,990.736 533.183,990.019 C537.457,989.575 541.768,989.414 546.019,988.821 C554.336,987.661 562.635,986.357 570.92,984.987 C581.644,983.213 592.399,981.577 603.042,979.394 C613.693,977.21 624.292,974.688 634.786,971.845 C649.485,967.864 664.053,963.323 677.148,955.29 C681.19,952.811 685.042,949.663 688.148,946.097 C693.463,939.993 693.627,935.546 688.463,928.174 C686.869,925.899 684.647,923.963 682.422,922.249 C672.286,914.439 660.477,909.809 648.456,906.217 C632.994,901.597 617.192,898.095 601.482,894.339 C596.696,893.194 591.729,892.804 586.846,892.068 C586.644,891.619 586.332,891.186 586.258,890.717 C583.202,871.488 580.164,852.256 577.134,833.023 C570.503,790.937 563.872,748.852 557.26,706.763 C556.345,700.94 555.537,695.098 554.627,688.902 C557.718,688.902 560.196,688.923 562.674,688.899 C596.45,688.581 623.82,661.615 623.883,627.882 C624.051,537.396 624.025,446.909 623.87,356.424 C623.839,338.138 616.449,322.805 602.662,310.766 C590.162,299.851 575.454,295.775 558.912,295.798 C427.766,295.991 296.619,295.905 165.472,295.905 C157.14,295.905 148.808,295.906 140.476,295.908 C132.551,295.911 124.853,297.303 117.667,300.607 C93.193,311.86 80.182,331.067 80.109,357.996 C79.866,447.482 80.015,536.969 80.018,626.455 C80.018,627.788 80.038,629.122 80.088,630.453 C81.184,659.234 103.815,684.252 132.39,688.07 C137.926,688.809 143.546,688.911 149.186,689.311 C149.081,690.513 149.053,691.516 148.898,692.499 C144.748,718.801 140.578,745.099 136.426,771.4 C131.937,799.837 127.49,828.281 122.971,856.712 C121.146,868.196 119.177,879.657 117.273,891.128 C106.28,893.212 95.174,894.833 84.319,897.484 C66.842,901.753 49.284,905.934 32.966,913.9 C25.811,917.393 18.776,920.956 13.3,927.078 C7.614,933.434 7.524,940.786 13.478,947.009 C23.462,957.444 36.472,962.585 49.704,966.812 C62.875,971.018 76.428,974.047 89.855,977.426 C109.374,982.338 129.302,985.03 149.18,987.913 C158.805,989.308 168.531,989.99 178.206,991.043 C190.006,992.328 201.786,993.82 213.602,994.927 C223.31,995.836 233.05,996.458 242.789,996.944 C253.226,997.463 263.678,997.676 274.123,998.012 C275.454,998.055 276.835,997.829 278.102,998.124 C278.823,998.292 279.357,999.264 279.975,999.873 C278.144,999.914 276.313,999.991 274.482,999.991 C182.99,1000 91.495,1000 0,1000.00004 Z" id="Path"></path>
                <path d="M0,1000 C91.495,1000 182.99,1000 274.485,999.994 C276.316,999.994 278.147,999.917 279.978,999.876 C281.136,999.938 282.294,1000.056 283.452,1000.057 C328.817,1000.066 374.182,1000.066 419.548,1000.057 C420.706,1000.057 421.864,999.94 423.023,999.876 C428.52,999.917 434.017,999.993 439.515,999.993 C526.343,1000.001 613.172,1000 700,1000 C700,1026.667 700,1053.333 700,1080 C466.667,1080 233.333,1080 0,1080 C0,1053.333 0,1026.667 0,1000 Z M142.498,1033.859 C141.91,1032.299 141.812,1030.642 140.991,1030.118 C138.142,1028.3 134.943,1027.361 131.487,1028.213 C128.079,1029.053 126.112,1031.273 125.879,1034.36 C125.625,1037.734 127.525,1039.658 130.336,1040.816 C132.477,1041.699 134.865,1042.048 136.898,1043.105 C138.184,1043.773 139.987,1045.467 139.83,1046.414 C139.594,1047.834 138.001,1049.853 136.7,1050.098 C134.049,1050.595 131.138,1050.418 128.464,1049.879 C125.918,1049.365 125.082,1049.914 125.333,1052.364 C131.52,1054.373 135.045,1054.513 138.565,1053.135 C141.659,1051.923 143.607,1049.709 143.762,1046.457 C143.92,1043.13 142.04,1040.812 138.912,1039.65 C136.894,1038.901 134.793,1038.372 132.785,1037.598 C131.097,1036.948 129.019,1036.261 129.525,1033.898 C130.03,1031.538 132.189,1030.828 134.213,1031.18 C136.606,1031.597 138.889,1032.653 142.498,1033.859 Z M210.003,1053.791 C206.974,1049.533 204.32,1045.803 200.855,1040.931 C203.737,1038.654 206.383,1036.563 209.217,1034.323 C203.296,1032.549 202.101,1038.946 197.636,1040.015 C197.636,1035.982 197.636,1032.191 197.636,1028.314 C196.26,1028.314 195.236,1028.314 194.02,1028.314 C194.02,1032.792 194.02,1036.941 194.02,1041.09 C194.02,1045.357 194.02,1049.622 194.02,1053.738 C196.57,1054.296 197.828,1054.004 197.751,1051.51 C197.686,1049.371 198.011,1047.221 198.176,1044.905 C203.143,1047.217 202.467,1055.176 210.003,1053.791 Z M174.512,1044.193 C174.615,1038.083 170.926,1033.913 165.434,1033.935 C160.125,1033.956 156.567,1037.859 156.456,1043.782 C156.342,1049.882 160.049,1054.076 165.527,1054.045 C170.832,1054.016 174.412,1050.089 174.512,1044.193 Z M40.582,1051.33 C39.954,1049.68 39.49,1048.531 39.079,1047.366 C37.046,1041.601 35.075,1035.815 32.953,1030.085 C32.617,1029.178 31.616,1028.518 30.923,1027.743 C30.639,1027.98 30.355,1028.218 30.07,1028.455 C32.734,1036.047 35.353,1043.655 38.114,1051.212 C38.506,1052.284 39.588,1053.105 40.351,1054.041 C41.274,1053.099 42.628,1052.317 43.049,1051.187 C45.591,1044.373 47.933,1037.483 50.302,1030.605 C50.571,1029.824 50.588,1028.957 50.722,1028.128 C50.39,1028.024 50.057,1027.921 49.725,1027.817 C45.881,1035.115 44.409,1043.424 40.582,1051.33 Z M190.983,1052.719 C190.767,1050.702 190.285,1049.971 188.078,1050.452 C186.363,1050.827 184.089,1050.377 182.558,1049.464 C180.199,1048.057 179.679,1043.86 180.92,1040.809 C182.094,1037.922 184.203,1036.616 187.728,1037.413 C189.879,1037.899 190.885,1037.782 190.907,1035.432 C185.681,1033.058 181.682,1033.675 178.865,1037.282 C176.203,1040.688 176.098,1046.82 178.64,1050.379 C181.306,1054.106 185.1,1054.893 190.983,1052.719 Z M93.977,1043.809 C93.883,1049.956 97.511,1054.059 103.033,1054.05 C108.341,1054.041 111.955,1050.09 112.022,1044.227 C112.091,1038.124 108.385,1033.925 102.953,1033.951 C97.658,1033.975 94.067,1037.919 93.977,1043.809 Z M65.765,1045.125 C65.349,1042.572 65.286,1040.725 64.721,1039.045 C63.828,1036.391 62.039,1034.443 59.086,1034.019 C56.205,1033.604 53.878,1034.696 52.059,1036.915 C49.101,1040.52 49.014,1047.306 51.913,1050.878 C53.153,1052.405 54.511,1053.803 57.115,1052.442 C54.312,1050.754 51.863,1049.024 52.138,1045.126 C56.437,1045.125 60.692,1045.125 65.765,1045.125 Z M634.112,1038.999 C632.285,1039.211 631.091,1040.445 630.948,1042.825 C630.855,1044.345 630.218,1045.873 630.346,1047.352 C630.489,1048.987 630.755,1051.202 631.832,1052.003 C632.978,1052.857 635.281,1052.806 636.815,1052.318 C638.699,1051.72 639.26,1049.91 638.821,1047.807 C638.549,1046.504 638.615,1045.082 638.784,1043.746 C639.147,1040.891 637.439,1038.859 634.112,1038.999 Z M627.404,1049.293 C627.07,1049.149 626.734,1049.007 626.399,1048.863 C626.572,1046.888 626.796,1044.916 626.902,1042.937 C627.024,1040.667 625.203,1038.927 622.779,1038.982 C620.423,1039.035 619.187,1040.27 618.95,1042.645 C618.781,1044.324 618.12,1045.999 618.21,1047.646 C618.292,1049.148 618.665,1051.259 619.681,1051.925 C620.949,1052.756 623.132,1052.822 624.681,1052.38 C625.792,1052.064 626.511,1050.372 627.404,1049.293 Z M150.111,1028.56 C149.677,1028.256 149.243,1027.954 148.809,1027.651 C148.128,1028.507 146.881,1029.348 146.857,1030.223 C146.698,1036.041 146.677,1041.871 146.864,1047.691 C146.971,1051.031 148.879,1053.316 151.798,1053.693 C152.84,1053.827 154.027,1052.838 155.787,1052.089 C149.41,1049 149.226,1048.401 150.46,1037.28 C151.847,1037.05 153.258,1036.814 154.723,1036.571 C154.723,1035.85 154.871,1034.998 154.7,1034.927 C153.281,1034.346 151.803,1033.909 150.111,1033.354 C150.111,1031.809 150.111,1030.184 150.111,1028.56 Z M82.888,1036.118 C78.185,1032.883 73.423,1033.423 70.422,1037.166 C67.005,1041.429 67.537,1048.668 71.522,1052.104 C74.75,1054.886 79.989,1054.823 82.741,1051.968 C73.086,1051.802 70.606,1050.487 70.487,1044.791 C70.442,1042.615 71.138,1040.145 72.272,1038.28 C74.686,1034.312 79.041,1036.725 82.888,1036.118 Z M88.127,1027.911 C87.569,1027.923 87.011,1027.934 86.453,1027.947 C86.357,1029.599 86.186,1031.252 86.179,1032.906 C86.157,1037.703 86.01,1042.51 86.274,1047.295 C86.524,1051.832 88.1,1053.295 92.503,1053.312 C85.755,1048.557 89.517,1042.135 88.47,1036.671 C90.041,1036.012 91.11,1035.563 93.152,1034.706 C90.933,1034.086 89.779,1033.765 88.707,1033.465 C88.499,1031.477 88.313,1029.693 88.127,1027.911 Z M576.619,1044.939 C576.883,1047.96 577.103,1050.49 577.397,1053.871 C580.404,1050.784 576.714,1045.56 582.591,1044.956 C582.847,1047.776 583.084,1050.378 583.32,1052.979 C583.735,1052.965 584.151,1052.953 584.566,1052.939 C585.17,1050.233 585.475,1047.408 584.33,1044.733 C583.967,1043.885 581.945,1042.892 581.207,1043.205 C577.495,1044.775 573.788,1042.262 570.166,1043.495 C569.737,1050.815 569.737,1050.815 571.413,1052.989 C573.045,1050.4 569.94,1044.995 576.619,1044.939 Z M650.796,1045.646 C651.011,1047.043 651.072,1048.212 651.383,1049.311 C652.028,1051.587 653.402,1053.06 655.979,1053.041 C658.542,1053.022 660.234,1051.586 660.482,1049.272 C660.753,1046.733 660.719,1043.963 659.927,1041.592 C659.523,1040.381 657.195,1039.212 655.692,1039.153 C654.428,1039.104 652.768,1040.444 651.898,1041.622 C651.092,1042.715 651.101,1044.407 650.796,1045.646 Z M616.217,1046.06 C615.87,1044.596 615.921,1042.854 615.092,1041.814 C614.089,1040.555 612.335,1039.162 610.917,1039.173 C609.504,1039.184 607.187,1040.636 606.887,1041.856 C606.249,1044.448 606.234,1047.397 606.832,1050.001 C607.119,1051.246 609.265,1052.53 610.789,1052.911 C612.925,1053.444 614.596,1052.108 615.287,1049.938 C615.684,1048.695 615.903,1047.396 616.217,1046.06 Z M439.758,1049.037 C438.933,1046.685 438.471,1044.797 437.615,1043.106 C436.886,1041.667 437.425,1038.966 434.004,1039.049 C435.846,1044.111 437.525,1048.727 439.206,1053.343 C439.756,1053.334 440.307,1053.325 440.857,1053.317 C442.519,1048.692 444.182,1044.066 445.845,1039.44 C445.505,1039.276 445.165,1039.111 444.825,1038.947 C441.628,1041.125 442.525,1045.566 439.758,1049.037 Z M595.718,1039.154 C595.688,1039.52 595.658,1039.886 595.628,1040.254 C597.066,1040.594 598.503,1040.935 600.137,1041.322 C599.213,1042.76 598.428,1043.981 597.458,1045.492 C598.417,1045.872 599.327,1045.97 599.794,1046.476 C600.583,1047.331 601.093,1048.447 601.72,1049.454 C600.608,1049.949 599.534,1050.672 598.372,1050.867 C597.444,1051.023 596.408,1050.537 594.775,1050.205 C597.951,1053.434 600.707,1053.847 602.64,1051.661 C603.346,1050.863 604.132,1049.425 603.863,1048.622 C603.293,1046.928 602.05,1045.459 601.04,1043.828 C601.896,1042.484 602.839,1041.005 604.019,1039.154 C600.883,1039.154 598.3,1039.154 595.718,1039.154 Z M502.334,1040.971 C500.762,1038.334 498.517,1038.58 496.61,1039.426 C495.477,1039.929 493.934,1041.802 494.166,1042.593 C494.601,1044.075 496.074,1045.351 497.334,1046.466 C498.468,1047.47 499.893,1048.144 501.152,1048.939 C499.175,1052.835 496.184,1049.606 493.414,1050.919 C494.443,1051.666 494.984,1052.253 495.652,1052.51 C498.723,1053.688 501.502,1052.92 502.591,1050.69 C503.637,1048.547 502.612,1046.9 499.217,1045.114 C498.029,1044.49 496.912,1043.732 495.764,1043.036 C495.863,1042.579 495.962,1042.123 496.061,1041.667 C497.96,1041.455 499.858,1041.245 502.334,1040.971 Z M455.14,1051.094 C452.652,1051.037 449.859,1052.054 449.122,1048.081 C450.446,1048.081 451.6,1048.136 452.746,1048.064 C453.814,1047.998 454.875,1047.795 456.179,1047.621 C455.61,1044.679 454.339,1042.576 451.575,1043.085 C449.94,1043.386 448.004,1044.893 447.24,1046.388 C446.208,1048.407 447.07,1050.716 449.095,1052.064 C451.172,1053.446 453.326,1053.742 455.14,1051.094 Z M563.03,1042.966 C560.244,1042.924 557.99,1045.123 557.958,1047.914 C557.925,1050.689 560.135,1052.98 562.885,1053.023 C565.656,1053.066 567.916,1050.865 567.98,1048.061 C568.042,1045.313 565.802,1043.008 563.03,1042.966 Z M516.048,1053.027 C518.777,1052.968 521.028,1050.623 520.976,1047.893 C520.923,1045.143 518.61,1042.922 515.85,1042.972 C513.073,1043.021 510.913,1045.287 510.97,1048.092 C511.025,1050.86 513.316,1053.086 516.048,1053.027 Z M480.008,1042.969 C477.217,1042.926 474.987,1045.113 474.963,1047.918 C474.94,1050.713 477.133,1052.991 479.884,1053.03 C482.612,1053.069 484.937,1050.801 484.986,1048.052 C485.034,1045.341 482.754,1043.012 480.008,1042.969 Z M534.714,1039.007 C534.31,1039.037 533.904,1039.067 533.5,1039.097 C532.407,1044.884 532.691,1050.521 534.466,1053.341 C534.799,1051.394 535.07,1049.815 535.411,1047.82 C537.217,1049.957 538.634,1051.632 540.05,1053.309 C540.361,1053.058 540.672,1052.807 540.983,1052.556 C539.97,1050.786 538.958,1049.017 538.018,1047.373 C538.816,1045.85 539.487,1044.571 540.157,1043.292 C539.926,1043.152 539.694,1043.014 539.464,1042.874 C538.202,1043.948 536.942,1045.023 535.211,1046.498 C535.015,1043.549 534.864,1041.278 534.714,1039.007 Z M114.923,1033.138 C114.917,1040.802 114.849,1047.357 115.728,1053.936 C117.436,1050.773 117.108,1047.369 116.868,1044.128 C116.552,1039.865 117.809,1037.066 122.118,1035.966 C122.451,1035.881 122.676,1035.374 122.951,1035.064 C122.818,1034.737 122.685,1034.411 122.553,1034.085 C120.786,1034.711 119.02,1035.336 117.44,1035.897 C116.813,1035.208 116.245,1034.586 114.923,1033.138 Z M662.99,1039.118 C662.959,1039.551 662.928,1039.982 662.896,1040.414 C664.829,1040.662 666.761,1040.908 668.999,1041.194 C667.177,1045.19 665.472,1048.928 663.767,1052.666 C664.265,1052.891 664.764,1053.115 665.262,1053.34 C667.817,1048.902 670.005,1044.282 672.033,1039.118 C668.515,1039.118 665.752,1039.118 662.99,1039.118 Z M466.852,1044.991 C463.296,1042.455 461.09,1042.477 459.142,1044.714 C457.322,1046.805 457.577,1050.037 459.704,1051.854 C461.866,1053.7 464.233,1053.387 466.611,1050.945 C461.623,1051.216 460.122,1050.548 460.084,1048.039 C460.047,1045.588 461.451,1044.869 466.852,1044.991 Z M532.007,1050.831 C529.337,1050.497 525.739,1052.582 525.118,1048.209 C524.771,1045.769 526.21,1045.031 531.331,1044.767 C528.589,1042.459 526.298,1042.404 524.262,1044.596 C522.498,1046.494 522.484,1049.48 524.229,1051.383 C526.308,1053.65 528.742,1053.554 532.007,1050.831 Z M556.695,1051.064 C551.392,1051.074 550.232,1050.568 550.086,1048.18 C549.938,1045.763 551.278,1045.03 556.343,1044.758 C553.534,1042.469 551.215,1042.42 549.223,1044.61 C547.493,1046.511 547.496,1049.527 549.232,1051.422 C551.276,1053.653 553.875,1053.529 556.695,1051.064 Z M212.513,1027.694 C212.918,1031.051 213.273,1033.989 213.677,1037.334 C216.413,1036.367 218.689,1035.564 220.62,1034.883 C219.254,1032.432 218.253,1030.638 217.286,1028.903 C215.991,1028.574 214.427,1028.179 212.513,1027.694 Z M649.111,1052.847 C645.066,1048.643 648.212,1043.355 645.867,1037.57 C644.263,1039.677 643.223,1041.042 641.932,1042.737 C643.144,1042.737 644.005,1042.737 644.96,1042.737 C644.629,1046.13 646.179,1049.76 642.604,1052.847 C645.099,1052.847 646.873,1052.847 649.111,1052.847 Z M505.522,1041.426 C505.045,1042.485 504.146,1043.53 504.225,1044.495 C504.42,1046.876 504.811,1049.318 505.66,1051.53 C505.976,1052.355 507.782,1052.609 508.909,1053.123 C506.333,1049.096 506.199,1047.164 508.245,1044.437 C507.434,1043.54 506.685,1042.712 505.522,1041.426 Z M472.986,1044.437 C471.766,1043.288 470.782,1042.36 469.69,1041.33 C467.223,1044.751 469.154,1048.034 469.468,1051.19 C469.547,1051.979 471.489,1052.583 472.574,1053.271 C470.284,1048.549 470.235,1047.182 472.986,1044.437 Z M492.018,1043.533 C490.419,1043.533 488.821,1043.533 487.2,1043.533 C486.648,1050.53 486.656,1050.601 488.419,1053.053 C489.784,1050.019 487.351,1045.508 492.018,1043.533 Z" id="Shape" fill="#121324"></path>
                <path d="M502,0 C502.477,0.331 502.911,0.849 503.435,0.967 C517.765,4.193 526.903,18.577 523.65,32.847 C520.348,47.329 506.143,56.566 491.935,53.453 C490.488,53.137 489.058,52.74 487.081,52.246 C455.32,107.445 423.485,162.774 391.448,218.454 C414.952,233.85 427.751,255.279 428.673,283.863 C377.757,283.863 327.213,283.863 276.181,283.863 C277.129,255.868 289.438,234.535 312.719,218.951 C286.576,179.523 260.582,140.319 234.656,101.217 C221.237,105.187 210.872,101.379 205.865,90.904 C201.381,81.522 204.252,70.219 212.659,64.15 C221.274,57.932 232.98,58.918 240.517,66.495 C248.71,74.732 248.803,85.704 240.454,97.234 C268.813,135.593 297.271,174.086 325.821,212.703 C341.747,207.039 357.604,206.321 374.1,211.044 C409.247,156.594 444.398,102.137 479.589,47.617 C475.219,43.147 472.027,38.361 470.899,32.417 C468.257,18.493 476.061,5.412 489.536,1.162 C490.394,0.89 491.18,0.393 492,0 C495.333,0 498.667,0 502,0 Z" id="Path" fill="#030303"></path>
                <path d="M117.275,891.131 C119.179,879.66 121.148,868.199 122.973,856.715 C127.492,828.283 131.939,799.839 136.428,771.403 C140.579,745.101 144.75,718.803 148.9,692.502 C149.055,691.52 149.083,690.517 149.188,689.314 C143.548,688.914 137.927,688.812 132.392,688.073 C103.816,684.255 81.185,659.237 80.09,630.456 C80.04,629.125 80.02,627.791 80.02,626.458 C80.018,536.972 79.869,447.485 80.111,357.999 C80.184,331.07 93.195,311.863 117.669,300.61 C124.856,297.305 132.553,295.914 140.478,295.911 C148.81,295.909 157.142,295.908 165.474,295.908 C296.621,295.908 427.768,295.994 558.914,295.801 C575.456,295.778 590.164,299.854 602.664,310.769 C616.451,322.808 623.841,338.141 623.872,356.427 C624.026,446.912 624.053,537.399 623.885,627.885 C623.823,661.617 596.452,688.583 562.676,688.902 C560.198,688.925 557.72,688.905 554.629,688.905 C555.539,695.101 556.347,700.943 557.262,706.766 C563.874,748.855 570.505,790.94 577.136,833.026 C580.166,852.259 583.204,871.491 586.26,890.72 C586.334,891.189 586.646,891.621 586.848,892.071 C586.933,893.392 586.913,894.729 587.119,896.031 C589.575,911.605 592.077,927.173 594.538,942.747 C595.406,948.24 596.195,953.746 597.048,959.433 C591.997,960.432 587.527,961.315 582.875,962.235 C580.488,952.851 578.257,944.014 575.99,935.187 C571.949,919.448 567.886,903.714 563.832,887.978 C563.692,887.169 563.605,886.346 563.404,885.552 C549.214,829.502 535.019,773.452 520.808,717.407 C518.411,707.951 515.939,698.512 513.521,689.138 C505.333,689.138 497.562,689.138 489.447,689.138 C491.77,712.222 494.054,735.037 496.367,757.85 C498.919,783.014 501.474,808.178 504.07,833.337 C505.709,849.224 507.425,865.103 509.108,880.984 C510.535,895.858 511.967,910.732 513.374,925.608 C513.478,926.705 513.388,927.82 513.388,929.175 C509.198,929.784 505.143,930.373 500.98,930.978 C500.606,929.317 500.289,928.036 500.03,926.743 C496.915,911.125 493.808,895.505 490.7,879.886 C490.022,875.96 489.419,872.021 488.656,868.113 C478.783,817.528 468.892,766.949 459,716.37 C457.223,707.28 455.426,698.194 453.641,689.12 C385.668,689.12 318.109,689.12 250.374,689.12 C249.898,691.368 249.43,693.45 249.02,695.543 C241.474,734.045 233.903,772.542 226.408,811.054 C221.994,833.731 217.701,856.432 213.355,879.121 C209.904,896.354 206.454,913.588 202.956,931.062 C198.488,930.354 194.45,929.713 190.203,929.041 C190.664,924.332 191.09,920.048 191.502,915.762 C192.616,904.167 193.724,892.572 194.835,880.976 C196.027,869.721 197.249,858.469 198.407,847.21 C200.962,822.366 203.479,797.52 206.024,772.676 C207.891,754.457 209.795,736.242 211.649,718.023 C212.621,708.472 213.52,698.914 214.476,689.122 C206.118,689.122 198.186,689.122 190.254,689.122 C189.8,690.768 189.378,692.201 189.012,693.648 C178.774,734.1 168.518,774.547 158.318,815.009 C152.264,839.023 146.299,863.06 140.294,887.086 C139.867,888.517 139.386,889.936 139.019,891.382 C133.339,913.779 127.679,936.182 121.988,958.576 C121.678,959.796 121.14,960.958 120.67,962.252 C115.953,961.254 111.597,960.333 107.155,959.394 C107.155,958.315 107.047,957.488 107.171,956.697 C108.591,947.66 110.091,938.635 111.482,929.593 C113.449,916.778 115.346,903.952 117.275,891.131 Z M424.974,341.842 C423.522,341.57 422.071,341.065 420.619,341.06 C405.472,341.008 390.323,341.037 375.177,341.043 C358.708,341.037 342.24,341.032 325.773,341.027 C309.191,341.028 292.61,341.028 276.029,341.029 C266.281,340.967 256.532,340.849 246.785,340.863 C240.023,340.873 233.261,341.066 226.499,341.176 C213.34,341.108 200.181,340.891 187.025,341.05 C182.412,341.107 177.689,341.605 173.223,342.727 C145.549,349.68 126.939,373.768 126.897,402.762 C126.812,462.421 126.855,522.081 126.917,581.741 C126.921,585.55 127.293,589.396 127.896,593.162 C132.115,619.467 154.612,640.829 181.112,642.936 C193.206,643.898 205.413,643.48 217.57,643.606 C220.546,643.637 223.525,643.349 226.502,643.208 C226.786,643.37 227.069,643.675 227.353,643.674 C243.569,643.634 259.786,643.568 276.002,643.504 C292.583,643.514 309.163,643.523 325.744,643.531 C333.558,643.623 341.371,643.791 349.185,643.784 C357.83,643.777 366.475,643.611 375.12,643.513 C391.703,643.301 408.286,643.089 424.87,642.876 C425.202,642.887 425.545,642.952 425.866,642.898 C455.164,637.95 476.994,612.384 477.022,582.763 C477.078,522.603 477.1,462.443 477.004,402.283 C476.972,382.033 468.739,365.543 452.673,353.278 C444.552,347.08 435.491,342.539 424.974,341.842 Z M516.852,374.603 C516.765,393.498 531.799,408.842 550.485,408.931 C569.21,409.02 584.587,393.9 584.817,375.172 C585.046,356.55 569.728,341.003 551.054,340.903 C532.16,340.804 516.938,355.801 516.852,374.603 Z M516.844,459.947 C516.795,478.868 531.786,494.027 550.609,494.09 C569.375,494.152 584.699,479.005 584.818,460.276 C584.937,441.663 569.57,426.15 550.938,426.076 C532.182,426 516.893,441.189 516.844,459.947 Z M550.618,581.233 C550.618,581.236 550.618,581.24 550.618,581.244 C561.112,581.244 571.606,581.246 582.1,581.24 C583.265,581.239 584.615,581.552 585.548,581.074 C586.728,580.469 588.432,579.123 588.352,578.237 C588.233,576.929 586.968,575.39 585.763,574.622 C584.789,574.001 583.183,574.314 581.857,574.313 C561.036,574.296 540.214,574.291 519.393,574.304 C518.07,574.305 516.509,574.076 515.487,574.679 C514.388,575.326 513.139,576.847 513.17,577.955 C513.198,579.036 514.58,580.38 515.702,581.037 C516.582,581.554 517.973,581.227 519.137,581.228 C529.631,581.236 540.124,581.233 550.618,581.233 Z M551.259,604.174 C540.602,604.174 529.944,604.162 519.287,604.183 C516.677,604.188 513.61,603.59 513.043,607.391 C512.661,609.946 514.688,611.104 519.278,611.106 C540.259,611.116 561.241,611.113 582.222,611.106 C583.386,611.105 584.83,611.438 585.646,610.883 C586.852,610.064 588.216,608.653 588.355,607.368 C588.456,606.443 586.843,604.954 585.671,604.383 C584.581,603.853 583.061,604.174 581.731,604.173 C571.574,604.164 561.416,604.168 551.259,604.174 Z M550.652,633.92 C540.997,633.92 531.341,633.917 521.685,633.922 C519.854,633.923 517.886,633.545 516.237,634.101 C514.951,634.535 513.262,636.115 513.22,637.242 C513.177,638.38 514.783,639.794 515.971,640.681 C516.624,641.17 517.902,640.853 518.898,640.854 C540.208,640.859 561.517,640.86 582.826,640.853 C583.821,640.853 585.063,641.129 585.756,640.65 C586.872,639.879 588.453,638.477 588.333,637.535 C588.17,636.257 586.77,634.878 585.547,634.086 C584.717,633.549 583.281,633.928 582.117,633.928 C571.629,633.922 561.141,633.924 550.652,633.92 Z M551.002,596.071 C551.002,596.074 551.002,596.078 551.002,596.081 C561.996,596.081 572.991,596.05 583.984,596.104 C586.467,596.117 588.497,595.455 588.471,592.705 C588.447,590.055 586.475,589.096 583.993,589.132 C583.494,589.139 582.994,589.137 582.494,589.137 C561.339,589.138 540.183,589.136 519.028,589.151 C517.87,589.152 516.382,588.876 515.632,589.468 C514.491,590.37 513.284,591.89 513.216,593.205 C513.17,594.101 514.88,595.383 516.065,595.955 C517.014,596.413 518.353,596.07 519.519,596.07 C530.014,596.072 540.508,596.071 551.002,596.071 Z M550.499,625.977 C561.151,625.977 571.804,625.989 582.456,625.971 C586.757,625.964 588.53,624.916 588.537,622.482 C588.544,620.049 586.836,619.065 582.443,619.063 C561.304,619.054 540.166,619.057 519.028,619.065 C517.866,619.066 516.451,618.75 515.605,619.289 C514.494,619.998 513.164,621.41 513.165,622.519 C513.165,623.622 514.49,625.102 515.617,625.715 C516.662,626.283 518.212,625.968 519.54,625.97 C529.859,625.981 540.179,625.976 550.499,625.977 Z M531.139,529.979 C531.221,524.704 527.005,520.365 521.818,520.385 C516.84,520.405 512.681,524.555 512.581,529.602 C512.476,534.902 516.635,539.123 521.937,539.1 C527.03,539.078 531.06,535.084 531.139,529.979 Z M550.831,539.111 C555.915,539.085 559.974,535.065 560.066,529.965 C560.161,524.726 555.863,520.337 550.684,520.385 C545.777,520.429 541.426,524.723 541.331,529.615 C541.231,534.788 545.584,539.139 550.831,539.111 Z M588.991,529.638 C588.931,524.653 584.705,520.413 579.745,520.367 C574.658,520.318 570.12,524.876 570.219,529.934 C570.318,534.929 574.51,539.064 579.526,539.111 C584.807,539.16 589.055,534.909 588.991,529.638 Z" id="Shape" fill="#020202"></path>
                <path d="M490.699,879.885 C493.807,895.504 496.914,911.124 500.029,926.742 C500.288,928.035 500.605,929.316 500.979,930.977 C505.142,930.373 509.197,929.784 513.387,929.174 C513.387,927.819 513.477,926.703 513.373,925.607 C511.967,910.731 510.534,895.857 509.107,880.983 C516.093,881.975 523.069,883.057 530.07,883.939 C541.315,885.354 552.577,886.636 563.831,887.975 C567.885,903.711 571.948,919.445 575.989,935.184 C578.256,944.011 580.487,952.848 582.874,962.232 C587.526,961.312 591.996,960.429 597.047,959.43 C596.194,953.743 595.405,948.238 594.537,942.744 C592.076,927.17 589.574,911.602 587.118,896.028 C586.912,894.726 586.931,893.389 586.847,892.068 C591.73,892.803 596.697,893.194 601.483,894.339 C617.193,898.095 632.995,901.597 648.457,906.217 C660.478,909.809 672.287,914.44 682.423,922.249 C684.648,923.963 686.87,925.898 688.464,928.174 C693.628,935.546 693.464,939.992 688.149,946.097 C685.043,949.663 681.191,952.811 677.149,955.29 C664.053,963.322 649.486,967.863 634.787,971.845 C624.293,974.688 613.694,977.21 603.043,979.394 C592.4,981.577 581.645,983.212 570.921,984.987 C562.636,986.357 554.337,987.661 546.02,988.821 C541.769,989.414 537.458,989.575 533.184,990.019 C526.291,990.737 519.404,991.507 512.519,992.294 C507.936,992.818 503.373,993.562 498.779,993.936 C492.675,994.432 486.543,994.575 480.434,995.027 C468.076,995.94 455.733,997.08 443.368,997.881 C437.89,998.235 432.373,997.938 426.876,998.055 C425.419,998.086 423.302,997.171 423.024,999.877 C421.866,999.939 420.708,1000.057 419.549,1000.057 C374.184,1000.066 328.819,1000.066 283.453,1000.057 C282.295,1000.056 281.137,999.939 279.979,999.876 C279.361,999.267 278.827,998.295 278.106,998.127 C276.84,997.832 275.459,998.058 274.127,998.015 C263.681,997.679 253.23,997.465 242.793,996.947 C233.054,996.462 223.314,995.84 213.606,994.93 C201.79,993.824 190.01,992.331 178.21,991.046 C168.535,989.993 158.809,989.311 149.184,987.916 C129.306,985.033 109.378,982.341 89.859,977.429 C76.432,974.05 62.879,971.021 49.708,966.815 C36.476,962.588 23.466,957.447 13.482,947.012 C7.528,940.789 7.618,933.438 13.304,927.081 C18.78,920.959 25.815,917.396 32.97,913.903 C49.288,905.937 66.845,901.756 84.323,897.487 C95.177,894.836 106.283,893.215 117.277,891.131 C115.348,903.952 113.45,916.778 111.479,929.593 C110.088,938.635 108.588,947.659 107.168,956.697 C107.044,957.488 107.152,958.315 107.152,959.394 C111.594,960.333 115.95,961.254 120.667,962.252 C121.137,960.958 121.676,959.796 121.985,958.576 C127.676,936.181 133.336,913.779 139.016,891.382 C139.383,889.936 139.864,888.517 140.291,887.086 C158.472,885.049 176.652,883.013 194.833,880.976 C193.723,892.572 192.615,904.167 191.5,915.762 C191.088,920.048 190.662,924.332 190.201,929.041 C194.449,929.714 198.486,930.354 202.954,931.062 C206.453,913.587 209.903,896.354 213.353,879.121 C223.084,878.42 232.81,877.619 242.549,877.041 C255.444,876.276 268.345,875.587 281.251,875.05 C292.694,874.574 304.15,874.033 315.597,874.083 C341.377,874.196 367.157,874.601 392.935,874.999 C406.885,875.214 420.833,875.612 434.781,876.019 C443.4,876.269 452.014,876.688 460.631,877.033 C460.963,877.047 461.296,877.07 461.627,877.098 C469.028,877.732 476.433,878.344 483.83,879.015 C486.127,879.223 488.41,879.59 490.699,879.885 Z" id="Path" fill="#DDDFE1"></path>
                <path d="M490.699,879.885 C488.41,879.59 486.127,879.223 483.83,879.015 C476.433,878.344 469.028,877.732 461.627,877.098 C461.296,877.07 460.963,877.046 460.631,877.033 C452.015,876.688 443.401,876.269 434.781,876.019 C420.834,875.613 406.885,875.214 392.935,874.999 C367.157,874.601 341.377,874.196 315.597,874.083 C304.15,874.033 292.694,874.574 281.251,875.05 C268.345,875.587 255.444,876.277 242.549,877.041 C232.81,877.619 223.085,878.42 213.353,879.121 C217.7,856.432 221.992,833.73 226.406,811.054 C233.902,772.542 241.472,734.045 249.018,695.543 C249.428,693.45 249.897,691.368 250.372,689.12 C318.107,689.12 385.666,689.12 453.639,689.12 C455.424,698.194 457.221,707.28 458.998,716.37 C468.89,766.949 478.781,817.528 488.653,868.111 C489.418,872.02 490.021,875.959 490.699,879.885 Z" id="Path"></path>
                <path d="M226.501,643.208 C223.523,643.35 220.544,643.638 217.569,643.606 C205.412,643.48 193.206,643.898 181.111,642.936 C154.611,640.829 132.113,619.466 127.895,593.162 C127.291,589.396 126.919,585.55 126.916,581.741 C126.854,522.082 126.811,462.422 126.896,402.762 C126.938,373.768 145.547,349.68 173.222,342.727 C177.688,341.605 182.411,341.107 187.024,341.05 C200.18,340.891 213.339,341.108 226.498,341.176 C226.469,342.34 226.414,343.504 226.414,344.667 C226.411,441.354 226.411,538.039 226.416,634.726 C226.416,637.554 226.472,640.381 226.501,643.208 Z" id="Path" fill="#FDDF7E"></path>
                <path d="M226.501,643.208 C226.471,640.381 226.416,637.554 226.416,634.727 C226.411,538.04 226.411,441.355 226.414,344.668 C226.414,343.505 226.469,342.341 226.498,341.177 C233.26,341.067 240.021,340.873 246.784,340.864 C256.532,340.85 266.28,340.968 276.028,341.03 C276.019,441.855 276.01,542.68 276.001,643.505 C259.785,643.568 243.568,643.635 227.352,643.675 C227.069,643.675 226.785,643.37 226.501,643.208 Z" id="Path" fill="#03ACEC"></path>
                <path d="M276.001,643.504 C276.01,542.68 276.019,441.855 276.028,341.029 C292.609,341.028 309.19,341.028 325.772,341.027 C325.795,342.191 325.84,343.355 325.84,344.519 C325.843,442.86 325.844,541.201 325.84,639.54 C325.84,640.87 325.778,642.2 325.744,643.53 C309.162,643.522 292.582,643.514 276.001,643.504 Z" id="Path" fill="#A7CD39"></path>
                <path d="M424.868,642.877 C408.284,643.09 391.701,643.302 375.118,643.514 C375.103,642.014 375.076,640.515 375.076,639.015 C375.074,541.857 375.074,444.698 375.079,347.539 C375.079,345.374 375.142,343.208 375.176,341.043 C390.322,341.036 405.471,341.008 420.618,341.06 C422.07,341.065 423.521,341.57 424.973,341.842 C424.975,440.691 424.978,539.539 424.975,638.388 C424.976,639.885 424.905,641.381 424.868,642.877 Z" id="Path" fill="#EB1B25"></path>
                <path d="M375.176,341.043 C375.143,343.208 375.079,345.374 375.079,347.539 C375.074,444.697 375.074,541.856 375.076,639.015 C375.076,640.515 375.103,642.014 375.118,643.514 C366.473,643.612 357.828,643.778 349.183,643.785 C341.37,643.792 333.556,643.624 325.742,643.532 C325.776,642.202 325.838,640.872 325.838,639.542 C325.842,541.202 325.842,442.861 325.838,344.521 C325.838,343.357 325.794,342.193 325.77,341.029 C342.239,341.032 358.707,341.037 375.176,341.043 Z" id="Path" fill="#AF1F8D"></path>
                <path d="M424.868,642.877 C424.905,641.381 424.975,639.885 424.975,638.388 C424.978,539.539 424.975,440.691 424.973,341.842 C435.491,342.539 444.551,347.08 452.671,353.28 C468.737,365.545 476.97,382.035 477.002,402.285 C477.098,462.445 477.075,522.605 477.02,582.765 C476.992,612.386 455.162,637.952 425.864,642.9 C425.543,642.953 425.2,642.888 424.868,642.877 Z" id="Path" fill="#2E3191"></path>
                <path d="M563.832,887.976 C552.578,886.637 541.316,885.355 530.071,883.94 C523.07,883.058 516.094,881.976 509.108,880.984 C507.425,865.102 505.709,849.223 504.07,833.337 C501.474,808.178 498.919,783.014 496.367,757.85 C494.055,735.038 491.77,712.222 489.447,689.138 C497.562,689.138 505.334,689.138 513.521,689.138 C515.939,698.512 518.411,707.95 520.808,717.407 C535.02,773.45 549.214,829.5 563.404,885.55 C563.605,886.344 563.692,887.167 563.832,887.976 Z" id="Path"></path>
                <path d="M194.832,880.976 C176.651,883.013 158.471,885.049 140.29,887.086 C146.295,863.06 152.26,839.023 158.314,815.009 C168.514,774.547 178.77,734.1 189.008,693.648 C189.374,692.201 189.797,690.768 190.25,689.122 C198.183,689.122 206.114,689.122 214.472,689.122 C213.516,698.914 212.618,708.473 211.645,718.023 C209.791,736.243 207.886,754.458 206.02,772.676 C203.475,797.52 200.958,822.366 198.403,847.21 C197.246,858.469 196.024,869.721 194.832,880.976 Z" id="Path"></path>
                <path d="M516.852,374.603 C516.939,355.801 532.161,340.804 551.054,340.904 C569.728,341.004 585.045,356.55 584.817,375.173 C584.587,393.901 569.21,409.021 550.485,408.932 C531.799,408.842 516.765,393.497 516.852,374.603 Z M574.798,392.129 C573.159,389.666 572.085,387.426 570.459,385.708 C560.516,375.207 550.448,364.824 540.419,354.405 C539.843,353.807 539.283,353.18 538.639,352.663 C535.7,350.302 532.101,350.398 529.629,352.865 C527.352,355.137 527.079,358.727 529.062,361.515 C529.73,362.455 530.578,363.274 531.382,364.111 C541.176,374.295 550.973,384.475 560.784,394.642 C561.704,395.595 562.601,396.967 563.726,397.236 C565.847,397.744 568.45,398.311 570.251,397.508 C572.045,396.709 573.101,394.256 574.798,392.129 Z" id="Shape"></path>
                <path d="M516.844,459.947 C516.893,441.189 532.182,426 550.938,426.075 C569.57,426.149 584.937,441.662 584.818,460.275 C584.699,479.004 569.375,494.152 550.609,494.089 C531.786,494.027 516.795,478.868 516.844,459.947 Z M540.846,488.984 C543.203,488.86 544.921,486.82 546.307,484.149 C553.119,471.022 560.024,457.943 566.818,444.807 C567.56,443.373 568.1,441.704 568.217,440.108 C568.418,437.347 566.961,435.233 564.445,434.213 C561.807,433.144 559.124,433.395 557.094,435.622 C556.111,436.702 555.466,438.115 554.774,439.433 C548.277,451.79 541.799,464.158 535.331,476.53 C534.639,477.855 533.864,479.176 533.431,480.591 C532.12,484.868 535.515,489.174 540.846,488.984 Z" id="Shape"></path>
                <path d="M550.618,581.233 C540.124,581.233 529.631,581.236 519.137,581.229 C517.973,581.228 516.582,581.554 515.702,581.038 C514.58,580.381 513.198,579.037 513.17,577.956 C513.14,576.848 514.389,575.327 515.487,574.68 C516.509,574.077 518.07,574.306 519.393,574.305 C540.214,574.291 561.036,574.297 581.857,574.314 C583.183,574.315 584.79,574.002 585.763,574.623 C586.968,575.392 588.233,576.931 588.352,578.238 C588.432,579.124 586.728,580.469 585.548,581.075 C584.614,581.554 583.265,581.24 582.1,581.241 C571.606,581.247 561.112,581.245 550.618,581.245 C550.618,581.24 550.618,581.236 550.618,581.233 Z" id="Path" fill="#EDEDED"></path>
                <path d="M551.259,604.171 C561.416,604.168 571.574,604.164 581.732,604.173 C583.062,604.174 584.583,603.853 585.672,604.383 C586.844,604.954 588.456,606.444 588.356,607.368 C588.217,608.652 586.853,610.063 585.647,610.883 C584.832,611.438 583.387,611.105 582.223,611.106 C561.242,611.113 540.26,611.116 519.279,611.106 C514.688,611.104 512.662,609.946 513.044,607.391 C513.611,603.59 516.678,604.188 519.288,604.183 C529.943,604.162 540.602,604.174 551.259,604.171 Z" id="Path"></path>
                <path d="M550.652,633.922 C561.14,633.924 571.629,633.922 582.117,633.927 C583.281,633.927 584.717,633.548 585.547,634.085 C586.77,634.877 588.17,636.256 588.333,637.534 C588.453,638.476 586.872,639.878 585.756,640.649 C585.064,641.128 583.821,640.852 582.826,640.852 C561.517,640.859 540.208,640.858 518.898,640.853 C517.902,640.852 516.625,641.169 515.971,640.68 C514.783,639.792 513.177,638.378 513.22,637.241 C513.262,636.114 514.95,634.534 516.237,634.1 C517.886,633.544 519.854,633.922 521.685,633.921 C531.342,633.917 540.997,633.92 550.652,633.922 Z" id="Path"></path>
                <path d="M551.002,596.071 C540.508,596.071 530.014,596.072 519.52,596.07 C518.354,596.07 517.015,596.413 516.066,595.955 C514.881,595.383 513.171,594.101 513.217,593.205 C513.285,591.89 514.492,590.37 515.633,589.468 C516.383,588.875 517.871,589.152 519.029,589.151 C540.184,589.136 561.34,589.138 582.495,589.137 C582.995,589.137 583.495,589.139 583.994,589.132 C586.475,589.096 588.447,590.055 588.472,592.705 C588.497,595.455 586.468,596.117 583.985,596.104 C572.992,596.049 561.997,596.081 551.003,596.081 C551.002,596.078 551.002,596.074 551.002,596.071 Z" id="Path"></path>
                <path d="M550.499,625.977 C540.179,625.976 529.859,625.982 519.54,625.97 C518.212,625.968 516.662,626.283 515.617,625.715 C514.49,625.102 513.165,623.621 513.165,622.519 C513.164,621.41 514.494,619.998 515.605,619.289 C516.451,618.75 517.866,619.066 519.028,619.065 C540.166,619.057 561.304,619.054 582.443,619.063 C586.836,619.065 588.544,620.049 588.537,622.482 C588.53,624.917 586.757,625.964 582.456,625.971 C571.804,625.988 561.151,625.977 550.499,625.977 Z" id="Path"></path>
                <path d="M531.139,529.979 C531.06,535.083 527.031,539.078 521.937,539.1 C516.634,539.123 512.475,534.902 512.581,529.602 C512.682,524.555 516.841,520.405 521.818,520.385 C527.005,520.365 531.221,524.704 531.139,529.979 Z" id="Path"></path>
                <path d="M550.831,539.111 C545.584,539.138 541.231,534.788 541.332,529.616 C541.427,524.723 545.777,520.429 550.685,520.386 C555.864,520.338 560.162,524.727 560.067,529.966 C559.974,535.065 555.915,539.085 550.831,539.111 Z" id="Path"></path>
                <path d="M588.991,529.638 C589.054,534.909 584.806,539.16 579.525,539.111 C574.509,539.064 570.317,534.929 570.218,529.934 C570.119,524.875 574.657,520.318 579.744,520.367 C584.705,520.413 588.932,524.652 588.991,529.638 Z" id="Path"></path>
                <path d="M574.798,392.129 C573.101,394.256 572.045,396.709 570.252,397.509 C568.45,398.312 565.848,397.744 563.727,397.237 C562.602,396.968 561.705,395.596 560.785,394.643 C550.973,384.476 541.177,374.295 531.383,364.112 C530.578,363.275 529.731,362.457 529.063,361.516 C527.081,358.728 527.353,355.138 529.63,352.866 C532.102,350.399 535.7,350.303 538.64,352.664 C539.285,353.182 539.844,353.809 540.42,354.406 C550.449,364.825 560.517,375.208 570.46,385.709 C572.085,387.426 573.159,389.666 574.798,392.129 Z" id="Path" fill="#060606"></path>
                <path d="M540.846,488.984 C535.515,489.173 532.12,484.868 533.43,480.59 C533.864,479.175 534.638,477.855 535.33,476.529 C541.799,464.157 548.276,451.79 554.773,439.432 C555.465,438.115 556.11,436.702 557.093,435.621 C559.122,433.393 561.806,433.142 564.444,434.212 C566.961,435.232 568.418,437.346 568.216,440.107 C568.099,441.704 567.559,443.373 566.817,444.806 C560.023,457.942 553.118,471.021 546.306,484.148 C544.921,486.82 543.203,488.86 540.846,488.984 Z" id="Path" fill="#070707"></path>
            </g>
        </g>
    </g>
</svg>