<?xml version="1.0" encoding="UTF-8"?>
<svg width="781px" height="1141px" viewBox="0 0 781 1141" version="1.1" xmlns="http://www.w3.org/2000/svg" xmlns:xlink="http://www.w3.org/1999/xlink">
    <!-- Generator: Sketch 52.6 (67491) - http://www.bohemiancoding.com/sketch -->
    <title>tv2</title>
    <desc>Created with Sketch.</desc>
    <g id="Page-1" stroke="none" stroke-width="1" fill="none" fill-rule="evenodd">
        <g id="tv" transform="translate(-3.000000, -4.000000)">
            <g id="tv2" transform="translate(-7.000000, 4.000000)">
                <path d="M0,1144 C0,762.794001 0,381.589193 0,0 C187.428571,0 374.857143,0 562.285714,0 C561.348571,0.449591982 560.450286,1.01815996 559.468571,1.32818395 C544.068571,6.19018375 535.150857,21.1548472 538.169143,37.0839025 C539.458286,43.8838382 543.106286,49.359022 548.100571,54.4727018 C507.882286,116.843579 467.709714,179.142385 427.541714,241.433182 C408.689143,236.030071 390.566857,236.851463 372.365714,243.331078 C339.737143,199.153232 307.213714,155.118386 274.803429,111.234548 C284.345143,98.0442281 284.238857,85.4922606 274.875429,76.069133 C266.261714,67.4010453 252.883429,66.2742053 243.037714,73.3864531 C233.428571,80.3293888 230.148571,93.2600203 235.273143,103.993028 C240.995429,115.977571 252.841143,120.332779 268.177143,115.791099 C297.808,160.52493 327.515429,205.374304 357.392,250.47879 C330.785143,268.306885 316.717714,292.711836 315.634286,324.738115 C373.955429,324.738115 431.721143,324.738115 489.910857,324.738115 C488.857143,292.03802 474.229714,267.523245 447.368,249.910222 C483.981714,186.212305 520.364571,122.915931 556.662857,59.7682776 C558.923429,60.3334136 560.556571,60.7875816 562.210286,61.1490856 C578.448,64.7092134 594.682286,54.1432298 598.456,37.5758225 C602.173714,21.2509431 591.730286,4.79564781 575.353143,1.10510396 C574.755429,0.971255961 574.259429,0.378663985 573.714286,0 C649.112,0 724.508571,0 800,0 C800,381.332937 800,762.667017 800,1144 C700.768,1143.99995 601.534857,1144.0011 502.302857,1143.99195 C496.019429,1143.99195 489.737143,1143.905 483.454857,1143.8581 C483.771429,1140.76358 486.192,1141.81034 487.857143,1141.77487 C494.139429,1141.64103 500.445714,1141.98194 506.705143,1141.57582 C520.836571,1140.65947 534.942857,1139.35646 549.066286,1138.31084 C556.046857,1137.79375 563.054857,1137.63016 570.032,1137.06274 C575.282286,1136.63488 580.497143,1135.78489 585.734857,1135.18429 C593.603429,1134.28396 601.474286,1133.40194 609.352,1132.58169 C614.236571,1132.07375 619.163429,1131.88957 624.021714,1131.21118 C633.526857,1129.88414 643.011429,1128.39236 652.48,1126.82508 C664.736,1124.79563 677.027429,1122.92404 689.190857,1120.42669 C701.363429,1117.9282 713.476571,1115.04303 725.469714,1111.79064 C742.268571,1107.23637 758.917714,1102.04147 773.883429,1092.85172 C778.502857,1090.01574 782.905143,1086.41443 786.454857,1082.33492 C792.529143,1075.35195 792.716571,1070.26458 786.814857,1061.83101 C784.993143,1059.22841 782.453714,1057.01363 779.910857,1055.05281 C768.326857,1046.11817 754.830857,1040.82145 741.092571,1036.71221 C723.421714,1031.42693 705.362286,1027.42064 687.408,1023.12378 C681.938286,1021.8139 676.261714,1021.36774 670.681143,1020.52575 C670.450286,1020.0121 670.093714,1019.51674 670.009143,1018.98021 C666.516571,996.982232 663.044571,974.980825 659.581714,952.978274 C652.003429,904.831892 644.425143,856.686654 636.868571,808.53684 C635.822857,801.875328 634.899429,795.19208 633.859429,788.103856 C637.392,788.103856 640.224,788.12788 643.056,788.100424 C681.657143,787.736632 712.937143,756.88753 713.009143,718.296979 C713.201143,614.780999 713.171429,511.263876 712.994286,407.74904 C712.958857,386.829857 704.513143,369.288905 688.756571,355.51629 C674.470857,343.02953 657.661714,338.366586 638.756571,338.392898 C488.875429,338.61369 338.993143,338.515306 189.110857,338.515306 C179.588571,338.515306 170.066286,338.51645 160.544,338.518738 C151.486857,338.52217 142.689143,340.114618 134.476571,343.894394 C106.506286,356.767826 91.6365714,378.740633 91.5531429,409.547408 C91.2754286,511.919388 91.4457143,614.292511 91.4491429,716.664491 C91.4491429,718.189443 91.472,719.715539 91.5291429,721.238203 C92.7817143,754.163666 118.645714,782.784257 151.302857,787.152049 C157.629714,787.997464 164.052571,788.114152 170.498286,788.571752 C170.378286,789.94684 170.346286,791.094272 170.169143,792.218824 C165.426286,822.308311 160.660571,852.393222 155.915429,882.481565 C150.785143,915.013491 145.702857,947.553426 140.538286,980.078489 C138.452571,993.216184 136.202286,1006.32757 134.026286,1019.45039 C121.462857,1021.83449 108.770286,1023.68891 96.3645714,1026.72165 C76.3908571,1031.60539 56.3245714,1036.38845 37.6754286,1045.50156 C29.4982857,1049.49755 21.4582857,1053.57362 15.2,1060.57719 C8.70171429,1067.84845 8.59885714,1076.25914 15.4034286,1083.37825 C26.8137143,1095.31589 41.6822857,1101.1972 56.8045714,1106.03288 C71.8571429,1110.84455 87.3462857,1114.30972 102.691429,1118.1753 C124.998857,1123.79463 147.773714,1126.87427 170.491429,1130.17243 C181.491429,1131.76831 192.606857,1132.54851 203.664,1133.75315 C217.149714,1135.22319 230.612571,1136.93003 244.116571,1138.19644 C255.211429,1139.23634 266.342857,1139.94791 277.473143,1140.50389 C289.401143,1141.09763 301.346286,1141.3413 313.283429,1141.72568 C314.804571,1141.77487 316.382857,1141.51633 317.830857,1141.85381 C318.654857,1142.046 319.265143,1143.15797 319.971429,1143.85467 C317.878857,1143.90157 315.786286,1143.98966 313.693714,1143.98966 C209.131429,1143.99995 104.565714,1143.99995 0,1144 Z" id="Path"></path>
                <path d="M573.529055,0 C574.073691,0.378968023 574.569231,0.972035806 575.167532,1.10713619 C591.529463,4.80064327 601.963191,21.269151 598.24893,37.607138 C594.478721,54.1878477 578.259514,64.7634598 562.036882,61.1993285 C560.384704,60.8375343 558.751936,60.3830017 556.494606,59.8174119 C520.230036,123.015768 483.880972,186.362964 447.301266,250.112026 C474.13803,267.739191 488.751872,292.27365 489.804608,325 C431.668943,325 373.958025,325 315.689912,325 C316.772334,292.948007 330.826696,268.52346 357.40884,250.68105 C327.558877,205.539204 297.879042,160.653819 268.276849,115.885216 C252.955093,120.430542 241.120382,116.070693 235.403411,104.077671 C230.2836,93.3360459 233.561695,80.3950321 243.160771,73.4465217 C252.99734,66.3274185 266.363199,67.4563081 274.968913,76.1313556 C284.323644,85.5620493 284.429831,98.1240951 274.89698,111.325005 C307.277161,155.242934 339.770381,199.314282 372.368646,243.5276 C390.552883,237.042781 408.658336,236.22073 427.493396,241.62818 C467.624086,179.287367 507.759344,116.938541 547.940273,54.5175842 C542.950627,49.3997985 539.306015,43.9202186 538.01807,37.114823 C535.001446,21.1729778 543.912018,6.19629892 559.297714,1.3303953 C560.277375,1.01897746 561.174826,0.44995297 562.111099,0 C565.916704,0 569.72345,0 573.529055,0 Z" id="Path" fill="#030303"></path>
                <path d="M133.648564,1018.6824 C135.825457,1005.56681 138.076665,992.462648 140.163235,979.33219 C145.329924,946.823903 150.414294,914.301895 155.546683,881.789033 C160.292629,851.716123 165.061441,821.647786 169.806243,791.57602 C169.983458,790.453231 170.015471,789.306431 170.13552,787.930957 C163.687163,787.473609 157.260529,787.356985 150.93222,786.512035 C118.260543,782.14665 92.3859365,753.541826 91.1339947,720.634502 C91.0768284,719.112677 91.0539619,717.587422 91.0539619,716.06331 C91.0516753,613.747728 90.8813197,511.431002 91.1580046,409.11542 C91.2414674,378.325617 106.117279,356.364915 134.099035,343.498576 C142.316117,339.719739 151.116296,338.129311 160.177153,338.125881 C169.703343,338.123595 179.229534,338.122451 188.755724,338.122451 C338.699472,338.122451 488.64322,338.220781 638.585825,338.000111 C657.49872,337.973813 674.314756,342.634188 688.606328,355.114068 C704.369361,368.879096 712.818538,386.410384 712.853981,407.318043 C713.030054,510.775851 713.060923,614.235947 712.868845,717.694899 C712.797959,756.263046 681.503988,787.095154 642.887016,787.459889 C640.053855,787.486186 637.220694,787.463319 633.686674,787.463319 C634.7271,794.547637 635.650907,801.227203 636.69705,807.885045 C644.256721,856.008333 651.838114,904.127048 659.419507,952.246905 C662.883784,974.237335 666.357208,996.226621 669.851212,1018.21248 C669.935818,1018.74872 670.292535,1019.24265 670.523487,1019.75717 C670.62067,1021.26756 670.597803,1022.79625 670.833329,1024.28491 C673.641337,1042.09175 676.501938,1059.89173 679.315663,1077.69857 C680.308069,1083.9791 681.210154,1090.2745 682.18541,1096.77684 C676.410472,1097.91907 671.299806,1098.92866 665.981054,1099.98056 C663.251935,1089.25118 660.701175,1079.14722 658.109256,1069.0547 C653.489076,1051.0592 648.843744,1033.06942 644.208701,1015.07736 C644.048635,1014.15237 643.949166,1013.21138 643.719357,1012.30354 C627.495564,948.21767 611.266055,884.131798 595.018252,820.051642 C592.2777,809.239938 589.451399,798.447672 586.686837,787.729724 C577.325285,787.729724 568.4405,787.729724 559.162412,787.729724 C561.818357,814.12327 564.429714,840.20925 567.074226,866.292944 C569.991994,895.064699 572.913191,923.836455 575.881265,952.602493 C577.755176,970.767208 579.717123,988.922776 581.64134,1007.08063 C583.272866,1024.08711 584.910109,1041.09359 586.518768,1058.10236 C586.637674,1059.35664 586.534774,1060.63149 586.534774,1062.18076 C581.744239,1062.87707 577.108053,1063.55052 572.348388,1064.24226 C571.920784,1062.34312 571.55835,1060.87846 571.262229,1059.40008 C567.700769,1041.54294 564.148455,1023.6835 560.594999,1005.82521 C559.819824,1001.33634 559.130399,996.832607 558.258041,992.364318 C546.969985,934.526961 535.66135,876.696465 524.351571,818.865968 C522.319881,808.472737 520.265325,798.08408 518.224488,787.709143 C440.509204,787.709143 363.267257,787.709143 285.824084,787.709143 C285.279861,790.279438 284.744785,792.659934 284.276021,795.053007 C275.648485,839.075028 266.992365,883.091332 258.423138,927.124786 C253.376498,953.052981 248.468201,979.008617 243.499307,1004.95053 C239.553689,1024.65422 235.609215,1044.35906 231.609862,1064.3383 C226.501482,1063.52879 221.884732,1062.79589 217.029028,1062.02755 C217.556101,1056.64342 218.043158,1051.74522 218.514208,1046.84474 C219.787873,1033.58737 221.054678,1020.33 222.324913,1007.07148 C223.687757,994.202857 225.084901,981.337661 226.408873,968.464461 C229.33007,940.058584 232.207821,911.65042 235.117585,883.244543 C237.252174,862.41349 239.429067,841.587011 241.548793,820.755958 C242.660105,809.835634 243.687955,798.907306 244.780975,787.71143 C235.225058,787.71143 226.156198,787.71143 217.087337,787.71143 C216.568268,789.593417 216.085784,791.231865 215.667327,792.886321 C203.961957,839.137913 192.236008,885.383788 180.574085,931.646813 C173.652391,959.103693 166.832452,986.586871 159.966781,1014.05747 C159.478581,1015.69363 158.928641,1017.31608 158.50904,1018.96939 C152.01495,1044.57744 145.543726,1070.19235 139.037059,1095.79697 C138.682628,1097.19188 138.067519,1098.52048 137.530155,1100 C132.137088,1098.85892 127.156761,1097.80587 122.078107,1096.73225 C122.078107,1095.49855 121.954628,1094.55299 122.096401,1093.64858 C123.719923,1083.31595 125.434912,1072.99704 127.025278,1062.65869 C129.2742,1048.00641 131.443089,1033.34155 133.648564,1018.6824 Z M485.448768,390.641996 C483.788659,390.330999 482.129693,389.753597 480.469584,389.74788 C463.151628,389.688425 445.831386,389.721583 428.514573,389.728443 C409.685141,389.721583 390.856852,389.715866 372.029706,389.710149 C353.071077,389.711293 334.113592,389.711293 315.156107,389.712436 C304.010968,389.641547 292.864684,389.506629 281.720688,389.522637 C273.989519,389.53407 266.25835,389.754741 258.527181,389.880511 C243.482157,389.802762 228.437133,389.554651 213.395538,389.736447 C208.121377,389.801619 202.721449,390.371017 197.615356,391.653878 C165.974958,399.603727 144.697665,427.145217 144.649645,460.296079 C144.552462,528.508372 144.601625,596.72181 144.672512,664.935247 C144.677085,669.290342 145.102402,673.687742 145.791828,677.993672 C150.615519,708.070013 176.33692,732.494676 206.635053,734.903756 C220.462435,736.003678 234.419013,735.525749 248.318425,735.669814 C251.720962,735.705259 255.12693,735.375968 258.530611,735.214753 C258.855315,735.399979 259.178877,735.748707 259.503581,735.747563 C278.043752,735.701828 296.585067,735.626366 315.125238,735.55319 C334.082723,735.564624 353.039064,735.574914 371.996549,735.584061 C380.930497,735.689251 389.863301,735.881337 398.797249,735.873334 C408.681301,735.86533 418.565352,735.675531 428.449404,735.563481 C447.409175,735.321086 466.368947,735.078692 485.329862,734.835154 C485.709446,734.847731 486.101607,734.92205 486.468614,734.860308 C519.965773,729.202915 544.924576,699.971525 544.956589,666.103771 C545.020615,597.318649 545.045768,528.533527 544.936009,459.748405 C544.899422,436.595168 535.486421,417.741001 517.117749,403.717572 C507.8328,396.630966 497.473125,391.438924 485.448768,390.641996 Z M590.495255,428.099931 C590.395786,449.703902 607.584546,467.247766 628.948731,467.349526 C650.357507,467.451286 667.938428,450.163536 668.201393,428.750508 C668.463214,407.458677 650.94975,389.682708 629.599284,389.568371 C607.997286,389.455178 590.593581,406.602293 590.495255,428.099931 Z M590.486108,525.679676 C590.430085,547.313374 607.569682,564.645716 629.090504,564.717748 C650.546156,564.788637 668.06648,547.470016 668.202536,526.055844 C668.338592,504.774304 650.769104,487.037209 629.466658,486.9526 C608.022439,486.865704 590.542131,504.232347 590.486108,525.679676 Z M629.100794,664.354415 C629.100794,664.357845 629.100794,664.362418 629.100794,664.366992 C641.098855,664.366992 653.096916,664.369279 665.094976,664.362418 C666.426951,664.361275 667.970441,664.71915 669.037164,664.172619 C670.386288,663.48088 672.334515,661.941905 672.243049,660.928879 C672.106994,659.433352 670.660686,657.673706 669.282979,656.795598 C668.169379,656.085565 666.333198,656.44344 664.817148,656.442296 C641.011962,656.422859 617.205632,656.417142 593.400446,656.432006 C591.887826,656.433149 590.103094,656.171318 588.934615,656.86077 C587.6781,657.60053 586.250086,659.339595 586.285529,660.606449 C586.317543,661.842432 587.897619,663.37912 589.18043,664.130314 C590.186557,664.721437 591.776923,664.347555 593.107754,664.348698 C605.105815,664.357845 617.102733,664.354415 629.100794,664.354415 Z M629.833666,690.584459 C617.649243,690.584459 605.463676,690.570739 593.279253,690.59475 C590.295173,690.600467 586.788593,689.916732 586.140327,694.26268 C585.703577,697.183989 588.021098,698.508012 593.268963,698.510298 C617.257082,698.521732 641.246344,698.518302 665.234462,698.510298 C666.565293,698.509155 668.216256,698.889897 669.14921,698.255327 C670.528061,697.318907 672.087557,695.705612 672.246479,694.236382 C672.361955,693.178765 670.517771,691.476288 669.177793,690.823424 C667.931568,690.217438 666.193713,690.584459 664.673089,690.583316 C653.060329,690.573026 641.446426,690.577599 629.833666,690.584459 Z M629.139667,724.595135 C618.100856,724.595135 607.060902,724.591705 596.020949,724.597422 C593.927519,724.598565 591.677454,724.166371 589.79211,724.802085 C588.321793,725.298307 586.390715,727.104832 586.342696,728.393409 C586.293533,729.694564 588.129714,731.311289 589.487985,732.325458 C590.234577,732.884565 591.695747,732.522117 592.8345,732.523261 C617.198772,732.528977 641.561902,732.530121 665.925031,732.522117 C667.06264,732.522117 668.482651,732.837687 669.274976,732.290013 C670.550927,731.408475 672.358525,729.805471 672.221326,728.728417 C672.034964,727.26719 670.434308,725.690483 669.03602,724.784934 C668.08706,724.170945 666.445244,724.604282 665.114413,724.604282 C653.123212,724.597422 641.132011,724.599708 629.139667,724.595135 Z M629.539831,681.319735 C629.539831,681.323165 629.539831,681.327738 629.539831,681.331168 C642.109555,681.331168 654.680422,681.295724 667.249002,681.357466 C670.08788,681.37233 672.408832,680.615419 672.379105,677.471152 C672.351665,674.441222 670.097027,673.344731 667.259292,673.385892 C666.688773,673.393896 666.11711,673.391609 665.545447,673.391609 C641.35839,673.392752 617.170189,673.390466 592.983132,673.407616 C591.659161,673.40876 589.957892,673.09319 589.100398,673.770064 C587.795863,674.801384 586.415869,676.539306 586.338122,678.042837 C586.285529,679.067296 588.240617,680.533096 589.595458,681.187104 C590.680474,681.710767 592.211387,681.318591 593.544505,681.318591 C605.543709,681.320878 617.54177,681.319735 629.539831,681.319735 Z M628.964738,715.513349 C641.143444,715.513349 653.323294,715.52707 665.502,715.506489 C670.419445,715.498486 672.446561,714.300234 672.454565,711.517272 C672.462568,708.735454 670.509767,707.610378 665.487137,707.608091 C641.318373,707.597801 617.150753,707.601231 592.983132,707.610378 C591.654587,707.611521 590.036781,707.250216 589.069528,707.866493 C587.799293,708.677142 586.27867,710.29158 586.279813,711.559577 C586.279813,712.820714 587.79472,714.512901 589.083248,715.213786 C590.278023,715.86322 592.050178,715.503059 593.568515,715.505346 C605.366494,715.517923 617.165616,715.512206 628.964738,715.513349 Z M606.829951,605.752144 C606.923703,599.720868 602.103442,594.759787 596.173011,594.782654 C590.481535,594.805522 585.726443,599.550506 585.612111,605.321093 C585.492061,611.380953 590.247153,616.207116 596.309067,616.180819 C602.132025,616.155665 606.739628,611.589046 606.829951,605.752144 Z M629.344322,616.193396 C635.156991,616.163668 639.79775,611.567322 639.902936,605.736136 C640.011552,599.746022 635.097538,594.727773 629.176253,594.782654 C623.565954,594.832963 618.591343,599.742592 618.482727,605.335957 C618.368395,611.250608 623.345292,616.22541 629.344322,616.193396 Z M672.973634,605.362254 C672.905035,599.662556 668.07334,594.814669 662.402444,594.762074 C656.586346,594.706049 651.397933,599.917528 651.511123,605.700692 C651.624312,611.411824 656.417134,616.139657 662.152056,616.193396 C668.189959,616.249421 673.046807,611.388956 672.973634,605.362254 Z" id="Shape" fill="#020202"></path>
                <path d="M560.613966,1006.63539 C564.166823,1024.48794 567.718536,1042.34164 571.279395,1060.19305 C571.575466,1061.67096 571.937839,1063.13514 572.365371,1065.03367 C577.124232,1064.3433 581.759636,1063.67007 586.549362,1062.97284 C586.549362,1061.42407 586.652244,1060.14848 586.533358,1058.89575 C584.926113,1041.89244 583.288004,1024.89142 581.656754,1007.8904 C589.642679,1009.02426 597.617173,1010.26099 605.620245,1011.26912 C618.474773,1012.88647 631.348734,1014.3518 644.21355,1015.88228 C648.84781,1033.86856 653.492359,1051.85257 658.111758,1069.84228 C660.70324,1079.93157 663.253569,1090.03228 665.982227,1100.75821 C671.300081,1099.70665 676.409884,1098.69738 682.183848,1097.55552 C681.208755,1091.05527 680.306824,1084.76304 679.314584,1078.48338 C676.501335,1060.68226 673.641217,1042.888 670.833683,1025.08688 C670.598197,1023.59869 670.619917,1022.07049 670.523894,1020.56059 C676.105811,1021.40069 681.783751,1021.84761 687.254784,1023.15634 C705.2134,1027.44946 723.277184,1031.45226 740.952302,1036.73293 C754.693901,1040.83859 768.193156,1046.13184 779.779949,1055.05754 C782.32342,1057.01665 784.863461,1059.22836 786.685614,1061.82983 C792.588752,1070.25605 792.401278,1075.33784 786.325527,1082.31587 C782.774957,1086.39182 778.37161,1089.98999 773.751067,1092.82349 C758.780601,1102.00409 742.128586,1107.19446 725.325678,1111.7459 C713.329643,1114.99545 701.213578,1117.87811 689.038072,1120.37442 C676.87171,1122.8696 664.577317,1124.73841 652.318361,1126.76724 C642.847507,1128.33315 633.360648,1129.82363 623.853213,1131.14951 C618.993755,1131.82731 614.06571,1132.01133 609.179961,1132.51883 C601.300347,1133.3395 593.427592,1134.21961 585.557123,1135.11916 C580.318145,1135.71809 575.10203,1136.56848 569.850479,1136.99597 C562.872796,1137.5629 555.863106,1137.72634 548.879708,1138.24298 C534.752874,1139.28654 520.643186,1140.58957 506.50835,1141.50511 C500.246269,1141.90973 493.939605,1141.57026 487.655804,1141.70399 C485.99026,1141.73943 483.570248,1140.69358 483.252457,1143.78654 C481.928709,1143.85741 480.604962,1143.99228 479.280071,1143.99228 C427.421854,1144.00257 375.563636,1144.00257 323.704276,1143.99228 C322.380528,1143.99114 321.056781,1143.85741 319.733033,1143.7854 C319.026577,1143.08931 318.416144,1141.97831 317.591945,1141.78629 C316.144739,1141.4491 314.566073,1141.70742 313.04342,1141.65827 C301.102255,1141.27422 289.155375,1141.02962 277.224499,1140.43755 C266.091529,1139.88319 254.957416,1139.17224 243.859883,1138.13211 C230.352626,1136.86795 216.886523,1135.16145 203.397556,1133.69269 C192.337747,1132.48911 181.219638,1131.70958 170.216985,1130.11509 C147.493792,1126.81981 124.713443,1123.74285 102.400635,1118.12842 C87.0517912,1114.26622 71.558913,1110.80406 56.5027116,1105.99659 C41.376779,1101.16512 26.5046219,1095.28895 15.0915846,1083.36172 C8.28537218,1076.24881 8.38825412,1067.8466 14.8881069,1060.58053 C21.1479019,1053.58307 29.1898408,1049.51055 37.3689556,1045.51805 C56.0225958,1036.41289 76.0925775,1031.63399 96.0722517,1026.75452 C108.479815,1023.72442 121.175447,1021.87161 133.743048,1019.48959 C131.537945,1034.14403 129.368279,1048.80418 127.115165,1063.45176 C125.525067,1073.78678 123.810368,1084.10124 122.187119,1094.4317 C122.045371,1095.33581 122.168829,1096.28107 122.168829,1097.51437 C127.246625,1098.58765 132.226111,1099.64036 137.618268,1100.78107 C138.155541,1099.30203 138.771689,1097.97386 139.124917,1096.5794 C145.630486,1070.98186 152.100617,1045.37631 158.593611,1019.77649 C159.013141,1018.1237 159.562988,1016.50178 160.051105,1014.86615 C180.834402,1012.53785 201.616555,1010.2107 222.399852,1007.8824 C221.130974,1021.13666 219.864383,1034.38977 218.58979,1047.64289 C218.11882,1052.5418 217.631845,1057.43842 217.104861,1062.82082 C221.960889,1063.59006 226.575716,1064.32158 231.683233,1065.13083 C235.683054,1045.15686 239.626862,1025.45949 243.57067,1005.76213 C254.694495,1004.96089 265.812604,1004.04534 276.945574,1003.38469 C291.686271,1002.51029 306.433827,1001.72276 321.187098,1001.10897 C334.267966,1000.5649 347.363695,999.946535 360.449135,1000.00369 C389.919098,1000.13284 419.38906,1000.59576 448.856736,1001.05068 C464.803438,1001.29642 480.747853,1001.75134 496.692269,1002.21654 C506.54493,1002.50229 516.391876,1002.98121 526.24225,1003.37554 C526.621771,1003.39154 527.002434,1003.41783 527.380811,1003.44984 C535.841136,1004.1745 544.306034,1004.87402 552.761787,1005.64097 C555.387563,1005.87872 557.997335,1006.2982 560.613966,1006.63539 Z" id="Path" fill="#DDDFE1"></path>
                <path d="M561,1006 C558.383726,1005.66288 555.774311,1005.24349 553.148893,1005.00579 C544.694295,1004.239 536.230553,1003.53962 527.771383,1002.81511 C527.393058,1002.78311 527.012447,1002.75568 526.632978,1002.74083 C516.785092,1002.34657 506.939491,1001.86775 497.087032,1001.58206 C481.145937,1001.1181 465.202556,1000.66213 449.258031,1000.41644 C419.79438,999.961618 390.328442,999.498797 360.862504,999.369664 C347.77885,999.312526 334.68491,999.930763 321.605828,1000.47472 C306.854572,1001.08839 292.10903,1001.8769 277.370346,1002.74997 C266.238897,1003.41049 255.123449,1004.32585 244,1005.12693 C248.968519,979.198679 253.874175,953.255576 258.919274,927.342185 C267.487027,883.331932 276.13936,839.33882 284.764262,795.339994 C285.232882,792.948182 285.768938,790.568941 286.311852,788 C363.731375,788 440.949734,788 518.641286,788 C520.681499,798.36947 522.735428,808.752654 524.766497,819.140408 C536.072822,876.940435 547.378004,934.740461 558.66147,992.545058 C559.535847,997.012135 560.225062,1001.5135 561,1006 Z" id="Path"></path>
                <path d="M644,1015 C631.140015,1013.47135 618.270888,1012.00778 605.421187,1010.39237 C597.42112,1009.38545 589.44962,1008.1502 581.466694,1007.0177 C579.543524,988.886289 577.582644,970.758301 575.709753,952.622321 C572.743295,923.899979 569.823688,895.171929 566.907508,866.443879 C564.265578,840.40095 561.6545,814.353454 559,788 C568.273039,788 577.154131,788 586.509444,788 C589.272501,798.701667 592.097264,809.476398 594.836325,820.27282 C611.076427,884.253352 627.29596,948.241875 643.510923,1012.2304 C643.740606,1013.13686 643.840022,1014.07642 644,1015 Z" id="Path"></path>
                <path d="M222.495888,1007.02469 C201.663544,1009.35017 180.832345,1011.67452 160,1014 C166.880712,986.571397 173.715591,959.130236 180.652449,931.715332 C192.339921,885.523034 204.091559,839.347861 215.822572,793.16698 C216.241945,791.515053 216.726632,789.879109 217.245693,788 C226.335567,788 235.423148,788 245,788 C243.904586,799.17876 242.87563,810.091522 241.760737,820.994009 C239.636367,841.794357 237.45356,862.588996 235.31544,883.38706 C232.399302,911.74951 229.515246,940.114243 226.587649,968.476693 C225.261923,981.330212 223.861718,994.175739 222.495888,1007.02469 Z" id="Path"></path>
                <path d="M591.000431,428.638891 C591.100272,407.081049 608.569051,389.885913 630.250672,390.00057 C651.680968,390.115227 669.258769,407.939831 668.997116,429.292437 C668.733168,450.765432 651.086511,468.101597 629.597687,467.999552 C608.15362,467.89636 590.90059,450.302217 591.000431,428.638891 Z M657.499304,448.733707 C655.618387,445.909701 654.385863,443.34138 652.519865,441.37157 C641.10927,429.33142 629.555226,417.426566 618.045938,405.480435 C617.38492,404.794785 616.742264,404.075885 616.003209,403.483107 C612.63041,400.776051 608.500195,400.886122 605.663326,403.714715 C603.050239,406.319726 602.736944,410.435918 605.012636,413.63256 C605.779234,414.710337 606.752399,415.64938 607.67507,416.60906 C618.914672,428.285747 630.157716,439.957847 641.416827,451.615042 C642.47262,452.707725 643.502018,454.280821 644.793069,454.589249 C647.22713,455.171707 650.214335,455.821813 652.281164,454.901116 C654.339959,453.985006 655.551826,451.172465 657.499304,448.733707 Z" id="Shape" fill="#FFFFFF"></path>
                <path d="M591.000137,525.845226 C591.056364,504.333275 608.600246,486.914306 630.122456,487.000317 C651.502377,487.085181 669.135763,504.875719 668.999212,526.221382 C668.862662,547.700075 651.278617,565.072025 629.744933,564.999775 C608.145843,564.928673 590.943911,547.544108 591.000137,525.845226 Z M618.542047,559.145286 C621.246667,559.003081 623.218045,556.663579 624.808457,553.600437 C632.625118,538.5462 640.548495,523.54701 648.344501,508.482451 C649.195934,506.837919 649.815575,504.923885 649.949831,503.093569 C650.180475,499.927213 648.508591,497.502847 645.621521,496.333096 C642.594459,495.107151 639.515759,495.395001 637.186367,497.948958 C636.05839,499.187517 635.318263,500.807967 634.524204,502.319469 C627.069001,516.490658 619.6356,530.674463 612.213673,544.862855 C611.419615,546.382385 610.530314,547.897327 610.033454,549.52007 C608.529102,554.424997 612.42481,559.363181 618.542047,559.145286 Z" id="Shape" fill="#FFFFFF"></path>
                <path d="M628.83518,664.878246 C616.831708,664.878246 604.82938,664.881624 592.825908,664.873742 C591.494477,664.872616 589.903393,665.239674 588.896813,664.658686 C587.613423,663.91894 586.032634,662.405669 586.000606,661.188521 C585.966291,659.940973 587.394949,658.22841 588.650887,657.499923 C589.819893,656.820977 591.605429,657.078819 593.118731,657.077693 C616.934654,657.06193 640.75172,657.068685 664.567642,657.087826 C666.084376,657.088952 667.922529,656.736531 669.035487,657.435744 C670.413815,658.301596 671.860775,660.034427 671.996892,661.506038 C672.088399,662.503626 670.139294,664.018023 668.789561,664.700346 C667.721213,665.239674 666.178171,664.886127 664.845595,664.887253 C652.842124,664.894009 640.838652,664.891757 628.83518,664.891757 C628.83518,664.886127 628.83518,664.881624 628.83518,664.878246 Z" id="Path" fill="#FFFFFF"></path>
                <path d="M629.661266,691.104862 C641.252045,691.101494 652.843964,691.097004 664.435883,691.107107 C665.953628,691.10823 667.689335,690.747888 668.93206,691.342844 C670.269502,691.983825 672.109054,693.656436 671.994938,694.693679 C671.836316,696.135043 670.279772,697.718973 668.903531,698.63947 C667.973484,699.26249 666.324506,698.888678 664.996194,698.8898 C641.053483,698.897658 617.10963,698.901026 593.166919,698.8898 C587.927846,698.887555 585.615853,697.587633 586.051776,694.719498 C586.698815,690.452656 590.198758,691.123945 593.177189,691.118333 C605.336266,691.094759 617.499907,691.10823 629.661266,691.104862 Z" id="Path"></path>
                <path d="M628.854262,725.140381 C640.861244,725.142617 652.869371,725.140381 664.876352,725.14597 C666.208935,725.14597 667.852912,724.722311 668.803121,725.322588 C670.203249,726.207912 671.806011,727.749404 671.992619,729.177995 C672.129998,730.230994 670.320021,731.798196 669.04239,732.660045 C668.250168,733.195488 666.827144,732.886966 665.688037,732.886966 C641.292845,732.89479 616.897653,732.893673 592.501315,732.888083 C591.361064,732.886966 589.899116,733.241319 589.150397,732.694698 C587.790338,731.702062 585.95174,730.121446 586.000968,728.85047 C586.049051,727.590672 587.981525,725.824495 589.454922,725.339355 C591.342747,724.71784 593.595773,725.140381 595.691958,725.139263 C606.747586,725.134792 617.800924,725.138145 628.854262,725.140381 Z" id="Path"></path>
                <path d="M630.180374,681.862275 C618.188209,681.862275 606.196045,681.863401 594.20388,681.861149 C592.871417,681.861149 591.341256,682.247296 590.256773,681.731683 C588.902598,681.087728 586.948472,679.64446 587.001039,678.635749 C587.078747,677.15533 588.458063,675.444123 589.761956,674.428656 C590.619029,673.761061 592.319462,674.072906 593.642783,674.07178 C617.817954,674.054893 641.994268,674.057144 666.169439,674.056019 C666.740821,674.056019 667.312203,674.05827 667.882442,674.05039 C670.717639,674.009861 672.97117,675.089498 672.999739,678.072852 C673.028308,681.168786 670.70964,681.914061 667.872157,681.899426 C655.309753,681.837507 642.745064,681.873533 630.181517,681.873533 C630.180374,681.870155 630.180374,681.865652 630.180374,681.862275 Z" id="Path"></path>
                <path d="M629.598354,715.911515 C617.823162,715.910385 606.04797,715.917163 594.27392,715.903607 C592.758663,715.901347 590.990102,716.257206 589.79775,715.615531 C588.511835,714.923019 587.000001,713.24992 587.000001,712.004981 C586.99886,710.752134 588.516399,709.156985 589.784058,708.356021 C590.749349,707.747108 592.363874,708.104096 593.689724,708.102966 C617.808329,708.093929 641.926934,708.09054 666.046679,708.100707 C671.059123,708.102966 673.007963,709.2146 672.999976,711.963182 C672.991989,714.714023 670.968983,715.896829 666.061512,715.904737 C653.907506,715.923942 641.75236,715.911515 629.598354,715.911515 Z" id="Path"></path>
                <path d="M606.998669,605.765359 C606.909289,611.49248 602.350899,615.975209 596.587573,615.999895 C590.587786,616.025703 585.882314,611.289383 586.002242,605.342333 C586.116513,599.679171 590.821985,595.022519 596.452937,595.000077 C602.321483,594.977636 607.091444,599.846362 606.998669,605.765359 Z" id="Path" fill="#FFFFFF"></path>
                <path d="M629.647472,615.99986 C623.767152,616.030139 618.88874,611.151769 619.001931,605.351555 C619.108398,599.864229 623.983448,595.04866 629.483849,595.000437 C635.287961,594.946607 640.104735,599.868715 639.998268,605.744067 C639.894043,611.462415 635.345117,615.970702 629.647472,615.99986 Z" id="Path" fill="#FFFFFF"></path>
                <path d="M672.999226,605.386833 C673.069691,611.291987 668.318338,616.054425 662.411582,615.99953 C656.801227,615.946876 652.112509,611.314394 652.001779,605.718445 C651.891048,600.050796 656.966764,594.945543 662.656532,595.000439 C668.20537,595.051973 672.933235,599.800967 672.999226,605.386833 Z" id="Path" fill="#FFFFFF"></path>
                <path d="M657,448.351941 C655.05291,450.797954 653.841286,453.618861 651.784049,454.538847 C649.716485,455.462283 646.731024,454.809093 644.297449,454.226052 C643.006656,453.916707 641.977464,452.338931 640.921882,451.242997 C629.663872,439.551124 618.42422,427.843151 607.186862,416.132879 C606.263228,415.170343 605.291405,414.229657 604.52496,413.147524 C602.25087,409.941372 602.562955,405.812935 605.17552,403.200174 C608.011823,400.363167 612.140066,400.252769 615.513338,402.967878 C616.253393,403.563569 616.894773,404.284608 617.55566,404.971148 C629.062649,416.952816 640.614386,428.893085 652.022702,440.969053 C653.887181,442.943573 655.119458,445.519534 657,448.351941 Z" id="Path" fill="#060606"></path>
                <path d="M617.775582,558.993171 C611.697964,559.208138 607.827486,554.311671 609.320955,549.445915 C609.815737,547.836507 610.698138,546.335151 611.487054,544.826971 C618.862052,530.755175 626.246171,516.689066 633.65309,502.633194 C634.442007,501.13525 635.17734,499.528118 636.298012,498.298598 C638.611178,495.764492 641.671078,495.479007 644.678536,496.696015 C647.548048,497.856154 649.209104,500.260597 648.978813,503.400932 C648.845427,505.217345 648.229799,507.11565 647.38388,508.745531 C639.638365,523.686293 631.766304,538.562224 624.000268,553.49275 C622.421295,556.531858 620.462686,558.852134 617.775582,558.993171 Z" id="Path" fill="#070707"></path>
            </g>
        </g>
    </g>
</svg>